solid OpenSCAD_Model
  facet normal 0 0 -1
    outer loop
      vertex -6.4125 0 -7.55
      vertex -6.27237 1.33323 -7.55
      vertex -6.27237 -1.33323 -7.55
    endloop
  endfacet
  facet normal 0 0 -1
    outer loop
      vertex -6.27237 -1.33323 -7.55
      vertex -6.27237 1.33323 -7.55
      vertex -5.85811 2.6082 -7.55
    endloop
  endfacet
  facet normal 0 0 -1
    outer loop
      vertex -6.27237 -1.33323 -7.55
      vertex -5.85811 2.6082 -7.55
      vertex -5.18782 3.76917 -7.55
    endloop
  endfacet
  facet normal 0 0 -1
    outer loop
      vertex -6.27237 -1.33323 -7.55
      vertex -5.18782 3.76917 -7.55
      vertex -4.2908 4.76542 -7.55
    endloop
  endfacet
  facet normal 0 0 -1
    outer loop
      vertex -6.27237 -1.33323 -7.55
      vertex -4.2908 4.76542 -7.55
      vertex -3.20625 5.55339 -7.55
    endloop
  endfacet
  facet normal 0 0 -1
    outer loop
      vertex -6.27237 -1.33323 -7.55
      vertex -3.20625 5.55339 -7.55
      vertex -1.98157 6.09865 -7.55
    endloop
  endfacet
  facet normal 0 0 -1
    outer loop
      vertex -3.275 3.275 -7.55
      vertex -1.98157 6.09865 -7.55
      vertex -0.670289 6.37737 -7.55
    endloop
  endfacet
  facet normal 0 0 -1
    outer loop
      vertex 3.275 3.275 -7.55
      vertex 5.18782 3.76917 -7.55
      vertex 5.85811 2.6082 -7.55
    endloop
  endfacet
  facet normal 0 0 -1
    outer loop
      vertex 3.275 3.275 -7.55
      vertex 4.2908 4.76542 -7.55
      vertex 5.18782 3.76917 -7.55
    endloop
  endfacet
  facet normal 0 0 -1
    outer loop
      vertex 3.275 -3.275 -7.55
      vertex 5.85811 -2.6082 -7.55
      vertex 5.18782 -3.76917 -7.55
    endloop
  endfacet
  facet normal 0 0 -1
    outer loop
      vertex 3.275 -3.275 -7.55
      vertex 1.98157 -6.09865 -7.55
      vertex -3.275 -3.275 -7.55
    endloop
  endfacet
  facet normal 0 0 -1
    outer loop
      vertex 3.275 -3.275 -7.55
      vertex 3.20625 -5.55339 -7.55
      vertex 1.98157 -6.09865 -7.55
    endloop
  endfacet
  facet normal 0 0 -1
    outer loop
      vertex -3.275 -3.275 -7.55
      vertex 1.98157 -6.09865 -7.55
      vertex 0.670289 -6.37737 -7.55
    endloop
  endfacet
  facet normal 0 0 -1
    outer loop
      vertex -6.27237 -1.33323 -7.55
      vertex 0.670289 -6.37737 -7.55
      vertex -0.670289 -6.37737 -7.55
    endloop
  endfacet
  facet normal 0 0 -1
    outer loop
      vertex -6.27237 -1.33323 -7.55
      vertex -0.670289 -6.37737 -7.55
      vertex -1.98157 -6.09865 -7.55
    endloop
  endfacet
  facet normal 0 0 -1
    outer loop
      vertex -6.27237 -1.33323 -7.55
      vertex -1.98157 -6.09865 -7.55
      vertex -3.20625 -5.55339 -7.55
    endloop
  endfacet
  facet normal 0 0 -1
    outer loop
      vertex -6.27237 -1.33323 -7.55
      vertex -3.20625 -5.55339 -7.55
      vertex -4.2908 -4.76542 -7.55
    endloop
  endfacet
  facet normal 0 0 -1
    outer loop
      vertex -6.27237 -1.33323 -7.55
      vertex -4.2908 -4.76542 -7.55
      vertex -5.18782 -3.76917 -7.55
    endloop
  endfacet
  facet normal 0 0 -1
    outer loop
      vertex -6.27237 -1.33323 -7.55
      vertex -5.18782 -3.76917 -7.55
      vertex -5.85811 -2.6082 -7.55
    endloop
  endfacet
  facet normal 0 0 -1
    outer loop
      vertex -6.27237 -1.33323 -7.55
      vertex -1.98157 6.09865 -7.55
      vertex -3.275 3.275 -7.55
    endloop
  endfacet
  facet normal 0 0 -1
    outer loop
      vertex -3.275 -3.275 -7.55
      vertex -6.27237 -1.33323 -7.55
      vertex -3.275 3.275 -7.55
    endloop
  endfacet
  facet normal 0 0 -1
    outer loop
      vertex 3.275 -3.275 -7.55
      vertex 4.2908 -4.76542 -7.55
      vertex 3.20625 -5.55339 -7.55
    endloop
  endfacet
  facet normal 0 0 -1
    outer loop
      vertex -6.27237 -1.33323 -7.55
      vertex -3.275 -3.275 -7.55
      vertex 0.670289 -6.37737 -7.55
    endloop
  endfacet
  facet normal 0 0 -1
    outer loop
      vertex 3.275 3.275 -7.55
      vertex 5.85811 -2.6082 -7.55
      vertex 3.275 -3.275 -7.55
    endloop
  endfacet
  facet normal 0 0 -1
    outer loop
      vertex -3.275 3.275 -7.55
      vertex -0.670289 6.37737 -7.55
      vertex 0.670289 6.37737 -7.55
    endloop
  endfacet
  facet normal 0 0 -1
    outer loop
      vertex -3.275 3.275 -7.55
      vertex 0.670289 6.37737 -7.55
      vertex 1.98157 6.09865 -7.55
    endloop
  endfacet
  facet normal 0 0 -1
    outer loop
      vertex -3.275 3.275 -7.55
      vertex 1.98157 6.09865 -7.55
      vertex 3.20625 5.55339 -7.55
    endloop
  endfacet
  facet normal 0 0 -1
    outer loop
      vertex -3.275 3.275 -7.55
      vertex 3.20625 5.55339 -7.55
      vertex 4.2908 4.76542 -7.55
    endloop
  endfacet
  facet normal 0 0 -1
    outer loop
      vertex -3.275 3.275 -7.55
      vertex 4.2908 4.76542 -7.55
      vertex 3.275 3.275 -7.55
    endloop
  endfacet
  facet normal 0 0 -1
    outer loop
      vertex 3.275 -3.275 -7.55
      vertex 5.18782 -3.76917 -7.55
      vertex 4.2908 -4.76542 -7.55
    endloop
  endfacet
  facet normal 0 0 -1
    outer loop
      vertex 3.275 3.275 -7.55
      vertex 5.85811 2.6082 -7.55
      vertex 6.27237 1.33323 -7.55
    endloop
  endfacet
  facet normal 0 0 -1
    outer loop
      vertex 3.275 3.275 -7.55
      vertex 6.27237 1.33323 -7.55
      vertex 6.4125 0 -7.55
    endloop
  endfacet
  facet normal 0 0 -1
    outer loop
      vertex 3.275 3.275 -7.55
      vertex 6.4125 0 -7.55
      vertex 6.27237 -1.33323 -7.55
    endloop
  endfacet
  facet normal 0 0 -1
    outer loop
      vertex 3.275 3.275 -7.55
      vertex 6.27237 -1.33323 -7.55
      vertex 5.85811 -2.6082 -7.55
    endloop
  endfacet
  facet normal -0.994522 0.104529 0
    outer loop
      vertex -6.4125 0 -7.55
      vertex -6.4125 0 0
      vertex -6.27237 1.33323 -7.55
    endloop
  endfacet
  facet normal -0.994522 0.104529 0
    outer loop
      vertex -6.27237 1.33323 -7.55
      vertex -6.4125 0 0
      vertex -6.27237 1.33323 0
    endloop
  endfacet
  facet normal -0.994522 -0.104529 0
    outer loop
      vertex -6.4125 0 -7.55
      vertex -6.27237 -1.33323 -7.55
      vertex -6.4125 0 0
    endloop
  endfacet
  facet normal -0.994522 -0.104529 0
    outer loop
      vertex -6.4125 0 0
      vertex -6.27237 -1.33323 -7.55
      vertex -6.27237 -1.33323 0
    endloop
  endfacet
  facet normal -0.951057 -0.309017 0
    outer loop
      vertex -6.27237 -1.33323 -7.55
      vertex -5.85811 -2.6082 -7.55
      vertex -6.27237 -1.33323 0
    endloop
  endfacet
  facet normal -0.951057 -0.309017 0
    outer loop
      vertex -6.27237 -1.33323 0
      vertex -5.85811 -2.6082 -7.55
      vertex -5.85811 -2.6082 0
    endloop
  endfacet
  facet normal -0.866025 -0.5 0
    outer loop
      vertex -5.85811 -2.6082 -7.55
      vertex -5.18782 -3.76917 -7.55
      vertex -5.85811 -2.6082 0
    endloop
  endfacet
  facet normal -0.866025 -0.5 0
    outer loop
      vertex -5.85811 -2.6082 0
      vertex -5.18782 -3.76917 -7.55
      vertex -5.18782 -3.76917 0
    endloop
  endfacet
  facet normal -0.743145 -0.669131 0
    outer loop
      vertex -5.18782 -3.76917 -7.55
      vertex -4.2908 -4.76542 -7.55
      vertex -5.18782 -3.76917 0
    endloop
  endfacet
  facet normal -0.743145 -0.669131 0
    outer loop
      vertex -5.18782 -3.76917 0
      vertex -4.2908 -4.76542 -7.55
      vertex -4.2908 -4.76542 0
    endloop
  endfacet
  facet normal -0.587785 -0.809017 0
    outer loop
      vertex -4.2908 -4.76542 0
      vertex -4.2908 -4.76542 -7.55
      vertex -3.20625 -5.55339 -7.55
    endloop
  endfacet
  facet normal -0.587785 -0.809017 0
    outer loop
      vertex -3.20625 -5.55339 0
      vertex -4.2908 -4.76542 0
      vertex -3.20625 -5.55339 -7.55
    endloop
  endfacet
  facet normal -0.406737 -0.913546 0
    outer loop
      vertex -3.20625 -5.55339 0
      vertex -3.20625 -5.55339 -7.55
      vertex -1.98157 -6.09865 -7.55
    endloop
  endfacet
  facet normal -0.406737 -0.913546 0
    outer loop
      vertex -1.98157 -6.09865 0
      vertex -3.20625 -5.55339 0
      vertex -1.98157 -6.09865 -7.55
    endloop
  endfacet
  facet normal -0.207912 -0.978148 0
    outer loop
      vertex -1.98157 -6.09865 0
      vertex -1.98157 -6.09865 -7.55
      vertex -0.670289 -6.37737 -7.55
    endloop
  endfacet
  facet normal -0.207912 -0.978148 0
    outer loop
      vertex -0.670289 -6.37737 0
      vertex -1.98157 -6.09865 0
      vertex -0.670289 -6.37737 -7.55
    endloop
  endfacet
  facet normal 0 -1 0
    outer loop
      vertex -0.670289 -6.37737 0
      vertex -0.670289 -6.37737 -7.55
      vertex 0.670289 -6.37737 -7.55
    endloop
  endfacet
  facet normal 0 -1 0
    outer loop
      vertex 0.670289 -6.37737 0
      vertex -0.670289 -6.37737 0
      vertex 0.670289 -6.37737 -7.55
    endloop
  endfacet
  facet normal 0.207912 -0.978148 0
    outer loop
      vertex 0.670289 -6.37737 0
      vertex 0.670289 -6.37737 -7.55
      vertex 1.98157 -6.09865 -7.55
    endloop
  endfacet
  facet normal 0.207912 -0.978148 0
    outer loop
      vertex 1.98157 -6.09865 0
      vertex 0.670289 -6.37737 0
      vertex 1.98157 -6.09865 -7.55
    endloop
  endfacet
  facet normal 0.406737 -0.913546 0
    outer loop
      vertex 1.98157 -6.09865 0
      vertex 1.98157 -6.09865 -7.55
      vertex 3.20625 -5.55339 -7.55
    endloop
  endfacet
  facet normal 0.406737 -0.913546 0
    outer loop
      vertex 3.20625 -5.55339 0
      vertex 1.98157 -6.09865 0
      vertex 3.20625 -5.55339 -7.55
    endloop
  endfacet
  facet normal 0.587785 -0.809017 0
    outer loop
      vertex 3.20625 -5.55339 0
      vertex 3.20625 -5.55339 -7.55
      vertex 4.2908 -4.76542 -7.55
    endloop
  endfacet
  facet normal 0.587785 -0.809017 0
    outer loop
      vertex 4.2908 -4.76542 0
      vertex 3.20625 -5.55339 0
      vertex 4.2908 -4.76542 -7.55
    endloop
  endfacet
  facet normal 0.743145 -0.669131 0
    outer loop
      vertex 4.2908 -4.76542 0
      vertex 4.2908 -4.76542 -7.55
      vertex 5.18782 -3.76917 -7.55
    endloop
  endfacet
  facet normal 0.743145 -0.669131 0
    outer loop
      vertex 5.18782 -3.76917 0
      vertex 4.2908 -4.76542 0
      vertex 5.18782 -3.76917 -7.55
    endloop
  endfacet
  facet normal 0.866025 -0.5 0
    outer loop
      vertex 5.18782 -3.76917 0
      vertex 5.18782 -3.76917 -7.55
      vertex 5.85811 -2.6082 -7.55
    endloop
  endfacet
  facet normal 0.866025 -0.5 0
    outer loop
      vertex 5.85811 -2.6082 0
      vertex 5.18782 -3.76917 0
      vertex 5.85811 -2.6082 -7.55
    endloop
  endfacet
  facet normal 0.951057 -0.309017 0
    outer loop
      vertex 5.85811 -2.6082 0
      vertex 5.85811 -2.6082 -7.55
      vertex 6.27237 -1.33323 -7.55
    endloop
  endfacet
  facet normal 0.951057 -0.309017 0
    outer loop
      vertex 6.27237 -1.33323 0
      vertex 5.85811 -2.6082 0
      vertex 6.27237 -1.33323 -7.55
    endloop
  endfacet
  facet normal 0.994522 -0.104529 0
    outer loop
      vertex 6.27237 -1.33323 0
      vertex 6.27237 -1.33323 -7.55
      vertex 6.4125 0 -7.55
    endloop
  endfacet
  facet normal 0.994522 -0.104529 0
    outer loop
      vertex 6.4125 0 0
      vertex 6.27237 -1.33323 0
      vertex 6.4125 0 -7.55
    endloop
  endfacet
  facet normal 0.994522 0.104529 0
    outer loop
      vertex 6.4125 0 -7.55
      vertex 6.27237 1.33323 -7.55
      vertex 6.27237 1.33323 0
    endloop
  endfacet
  facet normal 0.994522 0.104529 0
    outer loop
      vertex 6.4125 0 0
      vertex 6.4125 0 -7.55
      vertex 6.27237 1.33323 0
    endloop
  endfacet
  facet normal 0.951057 0.309017 0
    outer loop
      vertex 6.27237 1.33323 -7.55
      vertex 5.85811 2.6082 -7.55
      vertex 5.85811 2.6082 0
    endloop
  endfacet
  facet normal 0.951057 0.309017 0
    outer loop
      vertex 6.27237 1.33323 0
      vertex 6.27237 1.33323 -7.55
      vertex 5.85811 2.6082 0
    endloop
  endfacet
  facet normal 0.866025 0.5 0
    outer loop
      vertex 5.85811 2.6082 -7.55
      vertex 5.18782 3.76917 -7.55
      vertex 5.18782 3.76917 0
    endloop
  endfacet
  facet normal 0.866025 0.5 0
    outer loop
      vertex 5.85811 2.6082 0
      vertex 5.85811 2.6082 -7.55
      vertex 5.18782 3.76917 0
    endloop
  endfacet
  facet normal 0.743145 0.669131 0
    outer loop
      vertex 5.18782 3.76917 -7.55
      vertex 4.2908 4.76542 -7.55
      vertex 4.2908 4.76542 0
    endloop
  endfacet
  facet normal 0.743145 0.669131 0
    outer loop
      vertex 5.18782 3.76917 0
      vertex 5.18782 3.76917 -7.55
      vertex 4.2908 4.76542 0
    endloop
  endfacet
  facet normal 0.587785 0.809017 0
    outer loop
      vertex 3.20625 5.55339 -7.55
      vertex 3.20625 5.55339 0
      vertex 4.2908 4.76542 -7.55
    endloop
  endfacet
  facet normal 0.587785 0.809017 0
    outer loop
      vertex 4.2908 4.76542 -7.55
      vertex 3.20625 5.55339 0
      vertex 4.2908 4.76542 0
    endloop
  endfacet
  facet normal 0.406737 0.913546 0
    outer loop
      vertex 1.98157 6.09865 -7.55
      vertex 1.98157 6.09865 0
      vertex 3.20625 5.55339 -7.55
    endloop
  endfacet
  facet normal 0.406737 0.913546 0
    outer loop
      vertex 3.20625 5.55339 -7.55
      vertex 1.98157 6.09865 0
      vertex 3.20625 5.55339 0
    endloop
  endfacet
  facet normal 0.207912 0.978148 0
    outer loop
      vertex 0.670289 6.37737 -7.55
      vertex 0.670289 6.37737 0
      vertex 1.98157 6.09865 -7.55
    endloop
  endfacet
  facet normal 0.207912 0.978148 0
    outer loop
      vertex 1.98157 6.09865 -7.55
      vertex 0.670289 6.37737 0
      vertex 1.98157 6.09865 0
    endloop
  endfacet
  facet normal 0 1 0
    outer loop
      vertex -0.670289 6.37737 -7.55
      vertex -0.670289 6.37737 0
      vertex 0.670289 6.37737 -7.55
    endloop
  endfacet
  facet normal 0 1 0
    outer loop
      vertex 0.670289 6.37737 -7.55
      vertex -0.670289 6.37737 0
      vertex 0.670289 6.37737 0
    endloop
  endfacet
  facet normal -0.207912 0.978148 0
    outer loop
      vertex -1.98157 6.09865 -7.55
      vertex -1.98157 6.09865 0
      vertex -0.670289 6.37737 -7.55
    endloop
  endfacet
  facet normal -0.207912 0.978148 0
    outer loop
      vertex -0.670289 6.37737 -7.55
      vertex -1.98157 6.09865 0
      vertex -0.670289 6.37737 0
    endloop
  endfacet
  facet normal -0.406737 0.913546 0
    outer loop
      vertex -3.20625 5.55339 -7.55
      vertex -3.20625 5.55339 0
      vertex -1.98157 6.09865 -7.55
    endloop
  endfacet
  facet normal -0.406737 0.913546 0
    outer loop
      vertex -1.98157 6.09865 -7.55
      vertex -3.20625 5.55339 0
      vertex -1.98157 6.09865 0
    endloop
  endfacet
  facet normal -0.587785 0.809017 0
    outer loop
      vertex -4.2908 4.76542 -7.55
      vertex -4.2908 4.76542 0
      vertex -3.20625 5.55339 -7.55
    endloop
  endfacet
  facet normal -0.587785 0.809017 0
    outer loop
      vertex -3.20625 5.55339 -7.55
      vertex -4.2908 4.76542 0
      vertex -3.20625 5.55339 0
    endloop
  endfacet
  facet normal -0.743145 0.669131 0
    outer loop
      vertex -5.18782 3.76917 -7.55
      vertex -5.18782 3.76917 0
      vertex -4.2908 4.76542 -7.55
    endloop
  endfacet
  facet normal -0.743145 0.669131 0
    outer loop
      vertex -4.2908 4.76542 -7.55
      vertex -5.18782 3.76917 0
      vertex -4.2908 4.76542 0
    endloop
  endfacet
  facet normal -0.866025 0.5 0
    outer loop
      vertex -5.85811 2.6082 -7.55
      vertex -5.85811 2.6082 0
      vertex -5.18782 3.76917 -7.55
    endloop
  endfacet
  facet normal -0.866025 0.5 0
    outer loop
      vertex -5.18782 3.76917 -7.55
      vertex -5.85811 2.6082 0
      vertex -5.18782 3.76917 0
    endloop
  endfacet
  facet normal -0.951057 0.309017 0
    outer loop
      vertex -6.27237 1.33323 -7.55
      vertex -6.27237 1.33323 0
      vertex -5.85811 2.6082 -7.55
    endloop
  endfacet
  facet normal -0.951057 0.309017 0
    outer loop
      vertex -5.85811 2.6082 -7.55
      vertex -6.27237 1.33323 0
      vertex -5.85811 2.6082 0
    endloop
  endfacet
  facet normal 1 0 0
    outer loop
      vertex -3.275 3.275 -7.55
      vertex -3.275 3.275 -1
      vertex -3.275 -3.275 -1
    endloop
  endfacet
  facet normal 1 0 0
    outer loop
      vertex -3.275 -3.275 -7.55
      vertex -3.275 3.275 -7.55
      vertex -3.275 -3.275 -1
    endloop
  endfacet
  facet normal 0 -1 0
    outer loop
      vertex 3.275 3.275 -7.55
      vertex 3.275 3.275 -1
      vertex -3.275 3.275 -1
    endloop
  endfacet
  facet normal 0 -1 0
    outer loop
      vertex -3.275 3.275 -7.55
      vertex 3.275 3.275 -7.55
      vertex -3.275 3.275 -1
    endloop
  endfacet
  facet normal -1 0 0
    outer loop
      vertex 3.275 3.275 -1
      vertex 3.275 3.275 -7.55
      vertex 3.275 -3.275 -1
    endloop
  endfacet
  facet normal -1 0 0
    outer loop
      vertex 3.275 -3.275 -1
      vertex 3.275 3.275 -7.55
      vertex 3.275 -3.275 -7.55
    endloop
  endfacet
  facet normal 0 1 0
    outer loop
      vertex 3.275 -3.275 -1
      vertex 3.275 -3.275 -7.55
      vertex -3.275 -3.275 -1
    endloop
  endfacet
  facet normal 0 1 0
    outer loop
      vertex -3.275 -3.275 -1
      vertex 3.275 -3.275 -7.55
      vertex -3.275 -3.275 -7.55
    endloop
  endfacet
  facet normal 0 0 1
    outer loop
      vertex -6.27237 -1.33323 0
      vertex -5.85811 -2.6082 0
      vertex -5.18782 -3.76917 0
    endloop
  endfacet
  facet normal 0 0 1
    outer loop
      vertex -3.20625 -5.55339 0
      vertex -6.27237 -1.33323 0
      vertex -4.2908 -4.76542 0
    endloop
  endfacet
  facet normal 0 0 1
    outer loop
      vertex -4.2908 -4.76542 0
      vertex -6.27237 -1.33323 0
      vertex -5.18782 -3.76917 0
    endloop
  endfacet
  facet normal 0 0 1
    outer loop
      vertex -4.57655 -3.32506 0
      vertex -6.27237 -1.33323 0
      vertex -3.20625 -5.55339 0
    endloop
  endfacet
  facet normal 0 0 1
    outer loop
      vertex -2.82846 -4.89904 0
      vertex -3.78522 -4.20391 0
      vertex -1.98157 -6.09865 0
    endloop
  endfacet
  facet normal 0 0 1
    outer loop
      vertex -1.74809 -5.38005 0
      vertex -2.82846 -4.89904 0
      vertex -0.670289 -6.37737 0
    endloop
  endfacet
  facet normal 0 0 1
    outer loop
      vertex 0.59131 -5.62594 0
      vertex -0.59131 -5.62594 0
      vertex 0.670289 -6.37737 0
    endloop
  endfacet
  facet normal 0 0 1
    outer loop
      vertex 1.74809 -5.38005 0
      vertex 0.59131 -5.62594 0
      vertex 1.98157 -6.09865 0
    endloop
  endfacet
  facet normal 0 0 1
    outer loop
      vertex 2.82846 -4.89904 0
      vertex 1.74809 -5.38005 0
      vertex 3.20625 -5.55339 0
    endloop
  endfacet
  facet normal 0 0 1
    outer loop
      vertex 3.78522 -4.20391 0
      vertex 2.82846 -4.89904 0
      vertex 4.2908 -4.76542 0
    endloop
  endfacet
  facet normal 0 0 1
    outer loop
      vertex 4.57655 -3.32506 0
      vertex 3.78522 -4.20391 0
      vertex 5.18782 -3.76917 0
    endloop
  endfacet
  facet normal 0 0 1
    outer loop
      vertex 5.16786 -2.30088 0
      vertex 4.57655 -3.32506 0
      vertex 5.85811 -2.6082 0
    endloop
  endfacet
  facet normal 0 0 1
    outer loop
      vertex 5.53331 -1.17614 0
      vertex 5.16786 -2.30088 0
      vertex 6.27237 -1.33323 0
    endloop
  endfacet
  facet normal 0 0 1
    outer loop
      vertex 5.65692 0 0
      vertex 5.53331 -1.17614 0
      vertex 6.4125 0 0
    endloop
  endfacet
  facet normal 0 0 1
    outer loop
      vertex -5.16786 -2.30088 0
      vertex -5.53331 -1.17614 0
      vertex -6.27237 -1.33323 0
    endloop
  endfacet
  facet normal 0 0 1
    outer loop
      vertex -2.82846 4.89904 0
      vertex -1.74809 5.38005 0
      vertex -1.98157 6.09865 0
    endloop
  endfacet
  facet normal 0 0 1
    outer loop
      vertex -4.57655 3.32506 0
      vertex -3.78522 4.20391 0
      vertex -3.20625 5.55339 0
    endloop
  endfacet
  facet normal 0 0 1
    outer loop
      vertex -5.85811 2.6082 0
      vertex -6.27237 -1.33323 0
      vertex -5.18782 3.76917 0
    endloop
  endfacet
  facet normal 0 0 1
    outer loop
      vertex -6.27237 1.33323 0
      vertex -6.27237 -1.33323 0
      vertex -5.85811 2.6082 0
    endloop
  endfacet
  facet normal 0 0 1
    outer loop
      vertex -6.4125 0 0
      vertex -6.27237 -1.33323 0
      vertex -6.27237 1.33323 0
    endloop
  endfacet
  facet normal 0 0 1
    outer loop
      vertex -1.74809 5.38005 0
      vertex -0.59131 5.62594 0
      vertex -0.670289 6.37737 0
    endloop
  endfacet
  facet normal 0 0 1
    outer loop
      vertex -4.57655 -3.32506 0
      vertex -5.16786 -2.30088 0
      vertex -6.27237 -1.33323 0
    endloop
  endfacet
  facet normal 0 0 1
    outer loop
      vertex -5.18782 3.76917 0
      vertex -6.27237 -1.33323 0
      vertex -5.53331 1.17614 0
    endloop
  endfacet
  facet normal 0 0 1
    outer loop
      vertex -5.18782 3.76917 0
      vertex -5.16786 2.30088 0
      vertex -4.2908 4.76542 0
    endloop
  endfacet
  facet normal 0 0 1
    outer loop
      vertex -5.18782 3.76917 0
      vertex -5.53331 1.17614 0
      vertex -5.16786 2.30088 0
    endloop
  endfacet
  facet normal 0 0 1
    outer loop
      vertex -4.2908 4.76542 0
      vertex -4.57655 3.32506 0
      vertex -3.20625 5.55339 0
    endloop
  endfacet
  facet normal 0 0 1
    outer loop
      vertex -5.16786 2.30088 0
      vertex -4.57655 3.32506 0
      vertex -4.2908 4.76542 0
    endloop
  endfacet
  facet normal 0 0 1
    outer loop
      vertex -3.20625 5.55339 0
      vertex -3.78522 4.20391 0
      vertex -1.98157 6.09865 0
    endloop
  endfacet
  facet normal 0 0 1
    outer loop
      vertex -3.78522 4.20391 0
      vertex -2.82846 4.89904 0
      vertex -1.98157 6.09865 0
    endloop
  endfacet
  facet normal 0 0 1
    outer loop
      vertex -1.98157 6.09865 0
      vertex -1.74809 5.38005 0
      vertex -0.670289 6.37737 0
    endloop
  endfacet
  facet normal 0 0 1
    outer loop
      vertex 5.16786 2.30088 0
      vertex 5.53331 1.17614 0
      vertex 6.27237 1.33323 0
    endloop
  endfacet
  facet normal 0 0 1
    outer loop
      vertex -0.670289 6.37737 0
      vertex -0.59131 5.62594 0
      vertex 0.670289 6.37737 0
    endloop
  endfacet
  facet normal 0 0 1
    outer loop
      vertex -5.65692 0 0
      vertex -5.53331 1.17614 0
      vertex -6.27237 -1.33323 0
    endloop
  endfacet
  facet normal 0 0 1
    outer loop
      vertex 0.670289 6.37737 0
      vertex 0.59131 5.62594 0
      vertex 1.98157 6.09865 0
    endloop
  endfacet
  facet normal 0 0 1
    outer loop
      vertex 1.98157 6.09865 0
      vertex 1.74809 5.38005 0
      vertex 3.20625 5.55339 0
    endloop
  endfacet
  facet normal 0 0 1
    outer loop
      vertex 3.20625 5.55339 0
      vertex 2.82846 4.89904 0
      vertex 4.2908 4.76542 0
    endloop
  endfacet
  facet normal 0 0 1
    outer loop
      vertex 4.2908 4.76542 0
      vertex 3.78522 4.20391 0
      vertex 5.18782 3.76917 0
    endloop
  endfacet
  facet normal 0 0 1
    outer loop
      vertex 5.18782 3.76917 0
      vertex 4.57655 3.32506 0
      vertex 5.85811 2.6082 0
    endloop
  endfacet
  facet normal 0 0 1
    outer loop
      vertex 5.85811 2.6082 0
      vertex 5.16786 2.30088 0
      vertex 6.27237 1.33323 0
    endloop
  endfacet
  facet normal 0 0 1
    outer loop
      vertex 6.27237 1.33323 0
      vertex 5.53331 1.17614 0
      vertex 6.4125 0 0
    endloop
  endfacet
  facet normal 0 0 1
    outer loop
      vertex 5.53331 1.17614 0
      vertex 5.65692 0 0
      vertex 6.4125 0 0
    endloop
  endfacet
  facet normal 0 0 1
    outer loop
      vertex 6.4125 0 0
      vertex 5.53331 -1.17614 0
      vertex 6.27237 -1.33323 0
    endloop
  endfacet
  facet normal 0 0 1
    outer loop
      vertex 6.27237 -1.33323 0
      vertex 5.16786 -2.30088 0
      vertex 5.85811 -2.6082 0
    endloop
  endfacet
  facet normal 0 0 1
    outer loop
      vertex 5.85811 -2.6082 0
      vertex 4.57655 -3.32506 0
      vertex 5.18782 -3.76917 0
    endloop
  endfacet
  facet normal 0 0 1
    outer loop
      vertex 5.18782 -3.76917 0
      vertex 3.78522 -4.20391 0
      vertex 4.2908 -4.76542 0
    endloop
  endfacet
  facet normal 0 0 1
    outer loop
      vertex 4.2908 -4.76542 0
      vertex 2.82846 -4.89904 0
      vertex 3.20625 -5.55339 0
    endloop
  endfacet
  facet normal 0 0 1
    outer loop
      vertex 3.20625 -5.55339 0
      vertex 1.74809 -5.38005 0
      vertex 1.98157 -6.09865 0
    endloop
  endfacet
  facet normal 0 0 1
    outer loop
      vertex 1.98157 -6.09865 0
      vertex 0.59131 -5.62594 0
      vertex 0.670289 -6.37737 0
    endloop
  endfacet
  facet normal 0 0 1
    outer loop
      vertex 0.670289 -6.37737 0
      vertex -0.59131 -5.62594 0
      vertex -0.670289 -6.37737 0
    endloop
  endfacet
  facet normal 0 0 1
    outer loop
      vertex -0.59131 -5.62594 0
      vertex -1.74809 -5.38005 0
      vertex -0.670289 -6.37737 0
    endloop
  endfacet
  facet normal 0 0 1
    outer loop
      vertex -0.670289 -6.37737 0
      vertex -2.82846 -4.89904 0
      vertex -1.98157 -6.09865 0
    endloop
  endfacet
  facet normal 0 0 1
    outer loop
      vertex -1.98157 -6.09865 0
      vertex -3.78522 -4.20391 0
      vertex -3.20625 -5.55339 0
    endloop
  endfacet
  facet normal 0 0 1
    outer loop
      vertex -3.78522 -4.20391 0
      vertex -4.57655 -3.32506 0
      vertex -3.20625 -5.55339 0
    endloop
  endfacet
  facet normal 0 0 1
    outer loop
      vertex -0.59131 5.62594 0
      vertex 0.59131 5.62594 0
      vertex 0.670289 6.37737 0
    endloop
  endfacet
  facet normal 0 0 1
    outer loop
      vertex 0.59131 5.62594 0
      vertex 1.74809 5.38005 0
      vertex 1.98157 6.09865 0
    endloop
  endfacet
  facet normal 0 0 1
    outer loop
      vertex 1.74809 5.38005 0
      vertex 2.82846 4.89904 0
      vertex 3.20625 5.55339 0
    endloop
  endfacet
  facet normal 0 0 1
    outer loop
      vertex 2.82846 4.89904 0
      vertex 3.78522 4.20391 0
      vertex 4.2908 4.76542 0
    endloop
  endfacet
  facet normal 0 0 1
    outer loop
      vertex 3.78522 4.20391 0
      vertex 4.57655 3.32506 0
      vertex 5.18782 3.76917 0
    endloop
  endfacet
  facet normal 0 0 1
    outer loop
      vertex 4.57655 3.32506 0
      vertex 5.16786 2.30088 0
      vertex 5.85811 2.6082 0
    endloop
  endfacet
  facet normal 0 0 1
    outer loop
      vertex -5.53331 -1.17614 0
      vertex -5.65692 0 0
      vertex -6.27237 -1.33323 0
    endloop
  endfacet
  facet normal 0 0 -1
    outer loop
      vertex 3.275 3.275 -1
      vertex 3.275 -3.275 -1
      vertex -3.275 3.275 -1
    endloop
  endfacet
  facet normal 0 0 -1
    outer loop
      vertex -3.275 3.275 -1
      vertex 3.275 -3.275 -1
      vertex -3.275 -3.275 -1
    endloop
  endfacet
  facet normal -0.994522 0.104528 0
    outer loop
      vertex -5.65692 0 0
      vertex -5.65692 0 11
      vertex -5.53331 1.17614 0
    endloop
  endfacet
  facet normal -0.994522 0.104528 0
    outer loop
      vertex -5.53331 1.17614 0
      vertex -5.65692 0 11
      vertex -5.53331 1.17614 11
    endloop
  endfacet
  facet normal -0.994522 -0.104528 0
    outer loop
      vertex -5.65692 0 0
      vertex -5.53331 -1.17614 0
      vertex -5.65692 0 11
    endloop
  endfacet
  facet normal -0.994522 -0.104528 0
    outer loop
      vertex -5.65692 0 11
      vertex -5.53331 -1.17614 0
      vertex -5.53331 -1.17614 11
    endloop
  endfacet
  facet normal -0.951056 -0.309018 0
    outer loop
      vertex -5.53331 -1.17614 0
      vertex -5.16786 -2.30088 0
      vertex -5.53331 -1.17614 11
    endloop
  endfacet
  facet normal -0.951056 -0.309018 0
    outer loop
      vertex -5.53331 -1.17614 11
      vertex -5.16786 -2.30088 0
      vertex -5.16786 -2.30088 11
    endloop
  endfacet
  facet normal -0.866026 -0.5 0
    outer loop
      vertex -5.16786 -2.30088 0
      vertex -4.57655 -3.32506 0
      vertex -5.16786 -2.30088 11
    endloop
  endfacet
  facet normal -0.866026 -0.5 0
    outer loop
      vertex -5.16786 -2.30088 11
      vertex -4.57655 -3.32506 0
      vertex -4.57655 -3.32506 11
    endloop
  endfacet
  facet normal -0.743145 -0.66913 0
    outer loop
      vertex -4.57655 -3.32506 0
      vertex -3.78522 -4.20391 0
      vertex -4.57655 -3.32506 11
    endloop
  endfacet
  facet normal -0.743145 -0.66913 0
    outer loop
      vertex -4.57655 -3.32506 11
      vertex -3.78522 -4.20391 0
      vertex -3.78522 -4.20391 11
    endloop
  endfacet
  facet normal -0.587785 -0.809017 0
    outer loop
      vertex -3.78522 -4.20391 11
      vertex -3.78522 -4.20391 0
      vertex -2.82846 -4.89904 0
    endloop
  endfacet
  facet normal -0.587785 -0.809017 0
    outer loop
      vertex -2.82846 -4.89904 11
      vertex -3.78522 -4.20391 11
      vertex -2.82846 -4.89904 0
    endloop
  endfacet
  facet normal -0.406736 -0.913546 0
    outer loop
      vertex -2.82846 -4.89904 11
      vertex -2.82846 -4.89904 0
      vertex -1.74809 -5.38005 0
    endloop
  endfacet
  facet normal -0.406736 -0.913546 0
    outer loop
      vertex -1.74809 -5.38005 11
      vertex -2.82846 -4.89904 11
      vertex -1.74809 -5.38005 0
    endloop
  endfacet
  facet normal -0.207912 -0.978147 0
    outer loop
      vertex -1.74809 -5.38005 11
      vertex -1.74809 -5.38005 0
      vertex -0.59131 -5.62594 0
    endloop
  endfacet
  facet normal -0.207912 -0.978147 0
    outer loop
      vertex -0.59131 -5.62594 11
      vertex -1.74809 -5.38005 11
      vertex -0.59131 -5.62594 0
    endloop
  endfacet
  facet normal 0 -1 0
    outer loop
      vertex -0.59131 -5.62594 11
      vertex -0.59131 -5.62594 0
      vertex 0.59131 -5.62594 0
    endloop
  endfacet
  facet normal 0 -1 0
    outer loop
      vertex 0.59131 -5.62594 11
      vertex -0.59131 -5.62594 11
      vertex 0.59131 -5.62594 0
    endloop
  endfacet
  facet normal 0.207912 -0.978147 0
    outer loop
      vertex 0.59131 -5.62594 11
      vertex 0.59131 -5.62594 0
      vertex 1.74809 -5.38005 0
    endloop
  endfacet
  facet normal 0.207912 -0.978147 0
    outer loop
      vertex 1.74809 -5.38005 11
      vertex 0.59131 -5.62594 11
      vertex 1.74809 -5.38005 0
    endloop
  endfacet
  facet normal 0.406736 -0.913546 0
    outer loop
      vertex 1.74809 -5.38005 11
      vertex 1.74809 -5.38005 0
      vertex 2.82846 -4.89904 0
    endloop
  endfacet
  facet normal 0.406736 -0.913546 0
    outer loop
      vertex 2.82846 -4.89904 11
      vertex 1.74809 -5.38005 11
      vertex 2.82846 -4.89904 0
    endloop
  endfacet
  facet normal 0.587785 -0.809017 0
    outer loop
      vertex 2.82846 -4.89904 11
      vertex 2.82846 -4.89904 0
      vertex 3.78522 -4.20391 0
    endloop
  endfacet
  facet normal 0.587785 -0.809017 0
    outer loop
      vertex 3.78522 -4.20391 11
      vertex 2.82846 -4.89904 11
      vertex 3.78522 -4.20391 0
    endloop
  endfacet
  facet normal 0.743145 -0.66913 0
    outer loop
      vertex 3.78522 -4.20391 11
      vertex 3.78522 -4.20391 0
      vertex 4.57655 -3.32506 0
    endloop
  endfacet
  facet normal 0.743145 -0.66913 0
    outer loop
      vertex 4.57655 -3.32506 11
      vertex 3.78522 -4.20391 11
      vertex 4.57655 -3.32506 0
    endloop
  endfacet
  facet normal 0.866026 -0.5 0
    outer loop
      vertex 4.57655 -3.32506 11
      vertex 4.57655 -3.32506 0
      vertex 5.16786 -2.30088 0
    endloop
  endfacet
  facet normal 0.866026 -0.5 0
    outer loop
      vertex 5.16786 -2.30088 11
      vertex 4.57655 -3.32506 11
      vertex 5.16786 -2.30088 0
    endloop
  endfacet
  facet normal 0.951056 -0.309018 0
    outer loop
      vertex 5.16786 -2.30088 11
      vertex 5.16786 -2.30088 0
      vertex 5.53331 -1.17614 0
    endloop
  endfacet
  facet normal 0.951056 -0.309018 0
    outer loop
      vertex 5.53331 -1.17614 11
      vertex 5.16786 -2.30088 11
      vertex 5.53331 -1.17614 0
    endloop
  endfacet
  facet normal 0.994522 -0.104528 0
    outer loop
      vertex 5.53331 -1.17614 11
      vertex 5.53331 -1.17614 0
      vertex 5.65692 0 0
    endloop
  endfacet
  facet normal 0.994522 -0.104528 0
    outer loop
      vertex 5.65692 0 11
      vertex 5.53331 -1.17614 11
      vertex 5.65692 0 0
    endloop
  endfacet
  facet normal 0.994522 0.104528 0
    outer loop
      vertex 5.65692 0 0
      vertex 5.53331 1.17614 0
      vertex 5.53331 1.17614 11
    endloop
  endfacet
  facet normal 0.994522 0.104528 0
    outer loop
      vertex 5.65692 0 11
      vertex 5.65692 0 0
      vertex 5.53331 1.17614 11
    endloop
  endfacet
  facet normal 0.951056 0.309018 0
    outer loop
      vertex 5.53331 1.17614 0
      vertex 5.16786 2.30088 0
      vertex 5.16786 2.30088 11
    endloop
  endfacet
  facet normal 0.951056 0.309018 0
    outer loop
      vertex 5.53331 1.17614 11
      vertex 5.53331 1.17614 0
      vertex 5.16786 2.30088 11
    endloop
  endfacet
  facet normal 0.866026 0.5 0
    outer loop
      vertex 5.16786 2.30088 0
      vertex 4.57655 3.32506 0
      vertex 4.57655 3.32506 11
    endloop
  endfacet
  facet normal 0.866026 0.5 0
    outer loop
      vertex 5.16786 2.30088 11
      vertex 5.16786 2.30088 0
      vertex 4.57655 3.32506 11
    endloop
  endfacet
  facet normal 0.743145 0.66913 0
    outer loop
      vertex 4.57655 3.32506 0
      vertex 3.78522 4.20391 0
      vertex 3.78522 4.20391 11
    endloop
  endfacet
  facet normal 0.743145 0.66913 0
    outer loop
      vertex 4.57655 3.32506 11
      vertex 4.57655 3.32506 0
      vertex 3.78522 4.20391 11
    endloop
  endfacet
  facet normal 0.587785 0.809017 0
    outer loop
      vertex 2.82846 4.89904 0
      vertex 2.82846 4.89904 11
      vertex 3.78522 4.20391 0
    endloop
  endfacet
  facet normal 0.587785 0.809017 0
    outer loop
      vertex 3.78522 4.20391 0
      vertex 2.82846 4.89904 11
      vertex 3.78522 4.20391 11
    endloop
  endfacet
  facet normal 0.406736 0.913546 0
    outer loop
      vertex 1.74809 5.38005 0
      vertex 1.74809 5.38005 11
      vertex 2.82846 4.89904 0
    endloop
  endfacet
  facet normal 0.406736 0.913546 0
    outer loop
      vertex 2.82846 4.89904 0
      vertex 1.74809 5.38005 11
      vertex 2.82846 4.89904 11
    endloop
  endfacet
  facet normal 0.207912 0.978147 0
    outer loop
      vertex 0.59131 5.62594 0
      vertex 0.59131 5.62594 11
      vertex 1.74809 5.38005 0
    endloop
  endfacet
  facet normal 0.207912 0.978147 0
    outer loop
      vertex 1.74809 5.38005 0
      vertex 0.59131 5.62594 11
      vertex 1.74809 5.38005 11
    endloop
  endfacet
  facet normal 0 1 0
    outer loop
      vertex -0.59131 5.62594 0
      vertex -0.59131 5.62594 11
      vertex 0.59131 5.62594 0
    endloop
  endfacet
  facet normal 0 1 0
    outer loop
      vertex 0.59131 5.62594 0
      vertex -0.59131 5.62594 11
      vertex 0.59131 5.62594 11
    endloop
  endfacet
  facet normal -0.207912 0.978147 0
    outer loop
      vertex -1.74809 5.38005 0
      vertex -1.74809 5.38005 11
      vertex -0.59131 5.62594 0
    endloop
  endfacet
  facet normal -0.207912 0.978147 0
    outer loop
      vertex -0.59131 5.62594 0
      vertex -1.74809 5.38005 11
      vertex -0.59131 5.62594 11
    endloop
  endfacet
  facet normal -0.406736 0.913546 0
    outer loop
      vertex -2.82846 4.89904 0
      vertex -2.82846 4.89904 11
      vertex -1.74809 5.38005 0
    endloop
  endfacet
  facet normal -0.406736 0.913546 0
    outer loop
      vertex -1.74809 5.38005 0
      vertex -2.82846 4.89904 11
      vertex -1.74809 5.38005 11
    endloop
  endfacet
  facet normal -0.587785 0.809017 0
    outer loop
      vertex -3.78522 4.20391 0
      vertex -3.78522 4.20391 11
      vertex -2.82846 4.89904 0
    endloop
  endfacet
  facet normal -0.587785 0.809017 0
    outer loop
      vertex -2.82846 4.89904 0
      vertex -3.78522 4.20391 11
      vertex -2.82846 4.89904 11
    endloop
  endfacet
  facet normal -0.743145 0.66913 0
    outer loop
      vertex -4.57655 3.32506 0
      vertex -4.57655 3.32506 11
      vertex -3.78522 4.20391 0
    endloop
  endfacet
  facet normal -0.743145 0.66913 0
    outer loop
      vertex -3.78522 4.20391 0
      vertex -4.57655 3.32506 11
      vertex -3.78522 4.20391 11
    endloop
  endfacet
  facet normal -0.866026 0.5 0
    outer loop
      vertex -5.16786 2.30088 0
      vertex -5.16786 2.30088 11
      vertex -4.57655 3.32506 0
    endloop
  endfacet
  facet normal -0.866026 0.5 0
    outer loop
      vertex -4.57655 3.32506 0
      vertex -5.16786 2.30088 11
      vertex -4.57655 3.32506 11
    endloop
  endfacet
  facet normal -0.951056 0.309018 0
    outer loop
      vertex -5.53331 1.17614 0
      vertex -5.53331 1.17614 11
      vertex -5.16786 2.30088 0
    endloop
  endfacet
  facet normal -0.951056 0.309018 0
    outer loop
      vertex -5.16786 2.30088 0
      vertex -5.53331 1.17614 11
      vertex -5.16786 2.30088 11
    endloop
  endfacet
  facet normal 0 0 1
    outer loop
      vertex -5.53331 1.17614 11
      vertex -5.65692 0 11
      vertex -5.53331 -1.17614 11
    endloop
  endfacet
  facet normal 0 0 1
    outer loop
      vertex -4.57655 -3.32506 11
      vertex -5.53331 1.17614 11
      vertex -5.16786 -2.30088 11
    endloop
  endfacet
  facet normal 0 0 1
    outer loop
      vertex -5.16786 -2.30088 11
      vertex -5.53331 1.17614 11
      vertex -5.53331 -1.17614 11
    endloop
  endfacet
  facet normal 0 0 1
    outer loop
      vertex -3.78522 -4.20391 11
      vertex -5.53331 1.17614 11
      vertex -4.57655 -3.32506 11
    endloop
  endfacet
  facet normal 0 0 1
    outer loop
      vertex -2.82846 -4.89904 11
      vertex -5.53331 1.17614 11
      vertex -3.78522 -4.20391 11
    endloop
  endfacet
  facet normal 0 0 1
    outer loop
      vertex -1.74809 -5.38005 11
      vertex -5.53331 1.17614 11
      vertex -2.82846 -4.89904 11
    endloop
  endfacet
  facet normal 0 0 1
    outer loop
      vertex -2.078 -3.6 11
      vertex -5.53331 1.17614 11
      vertex -1.74809 -5.38005 11
    endloop
  endfacet
  facet normal 0 0 1
    outer loop
      vertex -2.078 3.6 11
      vertex 3.78522 4.20391 11
      vertex 2.82846 4.89904 11
    endloop
  endfacet
  facet normal 0 0 1
    outer loop
      vertex -2.078 3.6 11
      vertex 2.078 3.6 11
      vertex 3.78522 4.20391 11
    endloop
  endfacet
  facet normal 0 0 1
    outer loop
      vertex 4.157 0 11
      vertex 2.078 -3.6 11
      vertex 3.78522 -4.20391 11
    endloop
  endfacet
  facet normal 0 0 1
    outer loop
      vertex 4.157 0 11
      vertex 5.16786 -2.30088 11
      vertex 5.53331 -1.17614 11
    endloop
  endfacet
  facet normal 0 0 1
    outer loop
      vertex 2.078 3.6 11
      vertex 4.157 0 11
      vertex 5.65692 0 11
    endloop
  endfacet
  facet normal 0 0 1
    outer loop
      vertex 2.078 3.6 11
      vertex 5.53331 1.17614 11
      vertex 5.16786 2.30088 11
    endloop
  endfacet
  facet normal 0 0 1
    outer loop
      vertex 2.078 3.6 11
      vertex 5.16786 2.30088 11
      vertex 4.57655 3.32506 11
    endloop
  endfacet
  facet normal 0 0 1
    outer loop
      vertex -0.59131 5.62594 11
      vertex -5.53331 1.17614 11
      vertex 0.59131 5.62594 11
    endloop
  endfacet
  facet normal 0 0 1
    outer loop
      vertex -1.74809 5.38005 11
      vertex -5.53331 1.17614 11
      vertex -0.59131 5.62594 11
    endloop
  endfacet
  facet normal 0 0 1
    outer loop
      vertex -2.82846 4.89904 11
      vertex -5.53331 1.17614 11
      vertex -1.74809 5.38005 11
    endloop
  endfacet
  facet normal 0 0 1
    outer loop
      vertex -3.78522 4.20391 11
      vertex -5.53331 1.17614 11
      vertex -2.82846 4.89904 11
    endloop
  endfacet
  facet normal 0 0 1
    outer loop
      vertex -4.57655 3.32506 11
      vertex -5.53331 1.17614 11
      vertex -3.78522 4.20391 11
    endloop
  endfacet
  facet normal 0 0 1
    outer loop
      vertex -5.16786 2.30088 11
      vertex -5.53331 1.17614 11
      vertex -4.57655 3.32506 11
    endloop
  endfacet
  facet normal 0 0 1
    outer loop
      vertex -0.59131 -5.62594 11
      vertex -2.078 -3.6 11
      vertex -1.74809 -5.38005 11
    endloop
  endfacet
  facet normal 0 0 1
    outer loop
      vertex -2.078 3.6 11
      vertex 2.82846 4.89904 11
      vertex 1.74809 5.38005 11
    endloop
  endfacet
  facet normal 0 0 1
    outer loop
      vertex 4.157 0 11
      vertex 3.78522 -4.20391 11
      vertex 4.57655 -3.32506 11
    endloop
  endfacet
  facet normal 0 0 1
    outer loop
      vertex 4.157 0 11
      vertex 4.57655 -3.32506 11
      vertex 5.16786 -2.30088 11
    endloop
  endfacet
  facet normal 0 0 1
    outer loop
      vertex 0.59131 5.62594 11
      vertex -2.078 3.6 11
      vertex 1.74809 5.38005 11
    endloop
  endfacet
  facet normal 0 0 1
    outer loop
      vertex 0.59131 5.62594 11
      vertex -5.53331 1.17614 11
      vertex -2.078 3.6 11
    endloop
  endfacet
  facet normal 0 0 1
    outer loop
      vertex 3.78522 4.20391 11
      vertex 2.078 3.6 11
      vertex 4.57655 3.32506 11
    endloop
  endfacet
  facet normal 0 0 1
    outer loop
      vertex 2.078 3.6 11
      vertex 5.65692 0 11
      vertex 5.53331 1.17614 11
    endloop
  endfacet
  facet normal 0 0 1
    outer loop
      vertex 5.65692 0 11
      vertex 4.157 0 11
      vertex 5.53331 -1.17614 11
    endloop
  endfacet
  facet normal 0 0 1
    outer loop
      vertex 3.78522 -4.20391 11
      vertex 2.078 -3.6 11
      vertex 2.82846 -4.89904 11
    endloop
  endfacet
  facet normal 0 0 1
    outer loop
      vertex -2.078 -3.6 11
      vertex -4.157 0 11
      vertex -5.53331 1.17614 11
    endloop
  endfacet
  facet normal 0 0 1
    outer loop
      vertex 2.078 -3.6 11
      vertex 1.74809 -5.38005 11
      vertex 2.82846 -4.89904 11
    endloop
  endfacet
  facet normal 0 0 1
    outer loop
      vertex 2.078 -3.6 11
      vertex 0.59131 -5.62594 11
      vertex 1.74809 -5.38005 11
    endloop
  endfacet
  facet normal 0 0 1
    outer loop
      vertex 2.078 -3.6 11
      vertex -0.59131 -5.62594 11
      vertex 0.59131 -5.62594 11
    endloop
  endfacet
  facet normal 0 0 1
    outer loop
      vertex 2.078 -3.6 11
      vertex -2.078 -3.6 11
      vertex -0.59131 -5.62594 11
    endloop
  endfacet
  facet normal 0 0 1
    outer loop
      vertex -4.157 0 11
      vertex -2.078 3.6 11
      vertex -5.53331 1.17614 11
    endloop
  endfacet
  facet normal 0.865969 0.500097 0
    outer loop
      vertex -4.157 0 11
      vertex -2.078 -3.6 11
      vertex -2.078 -3.6 1
    endloop
  endfacet
  facet normal 0.865969 0.500097 0
    outer loop
      vertex -4.157 0 1
      vertex -4.157 0 11
      vertex -2.078 -3.6 1
    endloop
  endfacet
  facet normal 0 1 0
    outer loop
      vertex 2.078 -3.6 11
      vertex 2.078 -3.6 1
      vertex -2.078 -3.6 11
    endloop
  endfacet
  facet normal 0 1 0
    outer loop
      vertex -2.078 -3.6 11
      vertex 2.078 -3.6 1
      vertex -2.078 -3.6 1
    endloop
  endfacet
  facet normal -0.865969 0.500097 0
    outer loop
      vertex 4.157 0 11
      vertex 4.157 0 1
      vertex 2.078 -3.6 11
    endloop
  endfacet
  facet normal -0.865969 0.500097 0
    outer loop
      vertex 2.078 -3.6 11
      vertex 4.157 0 1
      vertex 2.078 -3.6 1
    endloop
  endfacet
  facet normal -0.865969 -0.500097 0
    outer loop
      vertex 4.157 0 11
      vertex 2.078 3.6 11
      vertex 4.157 0 1
    endloop
  endfacet
  facet normal -0.865969 -0.500097 0
    outer loop
      vertex 4.157 0 1
      vertex 2.078 3.6 11
      vertex 2.078 3.6 1
    endloop
  endfacet
  facet normal 0 -1 0
    outer loop
      vertex 2.078 3.6 1
      vertex 2.078 3.6 11
      vertex -2.078 3.6 11
    endloop
  endfacet
  facet normal 0 -1 0
    outer loop
      vertex -2.078 3.6 1
      vertex 2.078 3.6 1
      vertex -2.078 3.6 11
    endloop
  endfacet
  facet normal 0.865969 -0.500097 0
    outer loop
      vertex -2.078 3.6 1
      vertex -2.078 3.6 11
      vertex -4.157 0 11
    endloop
  endfacet
  facet normal 0.865969 -0.500097 0
    outer loop
      vertex -4.157 0 1
      vertex -2.078 3.6 1
      vertex -4.157 0 11
    endloop
  endfacet
  facet normal 0 0 1
    outer loop
      vertex -2.078 -3.6 1
      vertex 2.078 -3.6 1
      vertex 4.157 0 1
    endloop
  endfacet
  facet normal 0 0 1
    outer loop
      vertex -2.078 3.6 1
      vertex -2.078 -3.6 1
      vertex 2.078 3.6 1
    endloop
  endfacet
  facet normal 0 0 1
    outer loop
      vertex 2.078 3.6 1
      vertex -2.078 -3.6 1
      vertex 4.157 0 1
    endloop
  endfacet
  facet normal 0 0 1
    outer loop
      vertex -4.157 0 1
      vertex -2.078 -3.6 1
      vertex -2.078 3.6 1
    endloop
  endfacet
endsolid OpenSCAD_Model
