solid OpenSCAD_Model
  facet normal -2.22045e-16 0 -1
    outer loop
      vertex -51.8969 74.5348 1.15234e-14
      vertex -50.8 161.925 1.12799e-14
      vertex -50.8 73.025 1.12799e-14
    endloop
  endfacet
  facet normal -2.22045e-16 0 -1
    outer loop
      vertex -51.8969 74.5348 1.15234e-14
      vertex -51.8969 160.415 1.15234e-14
      vertex -50.8 161.925 1.12799e-14
    endloop
  endfacet
  facet normal -2.22045e-16 0 -1
    outer loop
      vertex -76.2 89.7429 1.69198e-14
      vertex -51.8969 74.5348 1.15234e-14
      vertex -53.6718 73.9581 1.19175e-14
    endloop
  endfacet
  facet normal -2.22045e-16 0 -1
    outer loop
      vertex -51.8969 74.5348 1.15234e-14
      vertex -76.2 89.7429 1.69198e-14
      vertex -51.8969 160.415 1.15234e-14
    endloop
  endfacet
  facet normal -2.22045e-16 0 -1
    outer loop
      vertex 0 0 0
      vertex -50.8 73.025 1.12799e-14
      vertex 0 234.95 0
    endloop
  endfacet
  facet normal -2.22045e-16 0 -1
    outer loop
      vertex 0 0 0
      vertex -51.8969 71.5152 1.15234e-14
      vertex -50.8 73.025 1.12799e-14
    endloop
  endfacet
  facet normal -2.22045e-16 0 -1
    outer loop
      vertex -60.325 0 1.33948e-14
      vertex -51.8969 71.5152 1.15234e-14
      vertex 0 0 0
    endloop
  endfacet
  facet normal -2.22045e-16 0 -1
    outer loop
      vertex -76.2 89.7429 1.69198e-14
      vertex -53.6718 73.9581 1.19175e-14
      vertex -53.6718 72.0919 1.19175e-14
    endloop
  endfacet
  facet normal -2.22045e-16 -0 -1
    outer loop
      vertex -76.2 145.207 1.69198e-14
      vertex -51.8969 160.415 1.15234e-14
      vertex -76.2 89.7429 1.69198e-14
    endloop
  endfacet
  facet normal -2.22045e-16 0 -1
    outer loop
      vertex -51.8969 71.5152 1.15234e-14
      vertex -68.1999 6.94267 1.51434e-14
      vertex -53.6718 72.0919 1.19175e-14
    endloop
  endfacet
  facet normal -2.22045e-16 0 -1
    outer loop
      vertex -68.1999 6.94267 1.51434e-14
      vertex -51.8969 71.5152 1.15234e-14
      vertex -60.325 0 1.33948e-14
    endloop
  endfacet
  facet normal -2.22045e-16 -0 -1
    outer loop
      vertex -50.8 161.925 1.12799e-14
      vertex 0 234.95 0
      vertex -50.8 73.025 1.12799e-14
    endloop
  endfacet
  facet normal -2.22045e-16 0 -1
    outer loop
      vertex -51.8969 163.435 1.15234e-14
      vertex 0 234.95 0
      vertex -50.8 161.925 1.12799e-14
    endloop
  endfacet
  facet normal -2.22045e-16 0 -1
    outer loop
      vertex -68.1999 228.007 1.51434e-14
      vertex -51.8969 163.435 1.15234e-14
      vertex -53.6718 162.858 1.19175e-14
    endloop
  endfacet
  facet normal -2.22045e-16 0 -1
    outer loop
      vertex -51.8969 163.435 1.15234e-14
      vertex -60.325 234.95 1.33948e-14
      vertex 0 234.95 0
    endloop
  endfacet
  facet normal -2.22045e-16 0 -1
    outer loop
      vertex -51.8969 160.415 1.15234e-14
      vertex -76.2 145.207 1.69198e-14
      vertex -53.6718 160.992 1.19175e-14
    endloop
  endfacet
  facet normal -2.22045e-16 0 -1
    outer loop
      vertex -68.1999 6.94267 1.51434e-14
      vertex -60.325 0 1.33948e-14
      vertex -61.8123 0.140594 1.37251e-14
    endloop
  endfacet
  facet normal -2.22045e-16 0 -1
    outer loop
      vertex -53.6718 160.992 1.19175e-14
      vertex -76.2 145.207 1.69198e-14
      vertex -53.6718 162.858 1.19175e-14
    endloop
  endfacet
  facet normal -2.22045e-16 0 -1
    outer loop
      vertex -68.1999 6.94267 1.51434e-14
      vertex -61.8123 0.140594 1.37251e-14
      vertex -63.7046 0.755435 1.41453e-14
    endloop
  endfacet
  facet normal -2.22045e-16 0 -1
    outer loop
      vertex -68.1999 228.007 1.51434e-14
      vertex -53.6718 162.858 1.19175e-14
      vertex -76.2 145.207 1.69198e-14
    endloop
  endfacet
  facet normal -2.22045e-16 0 -1
    outer loop
      vertex -68.1999 6.94267 1.51434e-14
      vertex -63.7046 0.755435 1.41453e-14
      vertex -65.3846 1.82155 1.45183e-14
    endloop
  endfacet
  facet normal -2.22045e-16 0 -1
    outer loop
      vertex -51.8969 163.435 1.15234e-14
      vertex -68.1999 228.007 1.51434e-14
      vertex -60.325 234.95 1.33948e-14
    endloop
  endfacet
  facet normal -2.22045e-16 0 -1
    outer loop
      vertex -68.1999 6.94267 1.51434e-14
      vertex -65.3846 1.82155 1.45183e-14
      vertex -66.7466 3.27195 1.48207e-14
    endloop
  endfacet
  facet normal -2.22045e-16 0 -1
    outer loop
      vertex -60.325 234.95 1.33948e-14
      vertex -68.1999 228.007 1.51434e-14
      vertex -61.8123 234.809 1.37251e-14
    endloop
  endfacet
  facet normal -2.22045e-16 0 -1
    outer loop
      vertex -68.1999 6.94267 1.51434e-14
      vertex -66.7466 3.27195 1.48207e-14
      vertex -67.7051 5.01551 1.50336e-14
    endloop
  endfacet
  facet normal -2.22045e-16 0 -1
    outer loop
      vertex -61.8123 234.809 1.37251e-14
      vertex -68.1999 228.007 1.51434e-14
      vertex -63.7046 234.195 1.41453e-14
    endloop
  endfacet
  facet normal -2.22045e-16 0 -1
    outer loop
      vertex -53.6718 72.0919 1.19175e-14
      vertex -68.1999 6.94267 1.51434e-14
      vertex -76.2 89.7429 1.69198e-14
    endloop
  endfacet
  facet normal -2.22045e-16 0 -1
    outer loop
      vertex -63.7046 234.195 1.41453e-14
      vertex -68.1999 228.007 1.51434e-14
      vertex -65.3846 233.128 1.45183e-14
    endloop
  endfacet
  facet normal -2.22045e-16 0 -1
    outer loop
      vertex -65.3846 233.128 1.45183e-14
      vertex -68.1999 228.007 1.51434e-14
      vertex -66.7466 231.678 1.48207e-14
    endloop
  endfacet
  facet normal -2.22045e-16 0 -1
    outer loop
      vertex -66.7466 231.678 1.48207e-14
      vertex -68.1999 228.007 1.51434e-14
      vertex -67.7051 229.934 1.50336e-14
    endloop
  endfacet
  facet normal 1 0 -2.22045e-16
    outer loop
      vertex 1.99269e-14 190.079 89.7429
      vertex 6.15776e-15 234.95 27.7321
      vertex 1.61212e-14 217.811 72.6035
    endloop
  endfacet
  facet normal 1 0 -2.22045e-16
    outer loop
      vertex 6.15776e-15 234.95 27.7321
      vertex 1.99269e-14 190.079 89.7429
      vertex 0 234.95 0
    endloop
  endfacet
  facet normal 1 0 -2.22045e-16
    outer loop
      vertex 1.99269e-14 44.8715 89.7429
      vertex 1.99269e-14 190.079 89.7429
      vertex 2.60847e-14 145.207 117.475
    endloop
  endfacet
  facet normal 1 0 -2.22045e-16
    outer loop
      vertex 1.99269e-14 44.8715 89.7429
      vertex 2.60847e-14 145.207 117.475
      vertex 2.60847e-14 89.7429 117.475
    endloop
  endfacet
  facet normal 1 0 -2.22045e-16
    outer loop
      vertex 1.99269e-14 190.079 89.7429
      vertex 1.99269e-14 44.8715 89.7429
      vertex 0 234.95 0
    endloop
  endfacet
  facet normal 1 0 -2.22045e-16
    outer loop
      vertex 6.15776e-15 0 27.7321
      vertex 1.99269e-14 44.8715 89.7429
      vertex 1.61212e-14 17.1394 72.6035
    endloop
  endfacet
  facet normal 1 0 -2.22045e-16
    outer loop
      vertex 1.99269e-14 44.8715 89.7429
      vertex 6.15776e-15 0 27.7321
      vertex 0 0 0
    endloop
  endfacet
  facet normal 1 0 -2.22045e-16
    outer loop
      vertex 1.99269e-14 44.8715 89.7429
      vertex 0 0 0
      vertex 0 234.95 0
    endloop
  endfacet
  facet normal 0 -1 0
    outer loop
      vertex -60.325 0 1.33948e-14
      vertex -17.9884 0 27.7321
      vertex -60.325 0 10
    endloop
  endfacet
  facet normal 0 -1 -0
    outer loop
      vertex -17.9884 0 27.7321
      vertex -60.325 0 1.33948e-14
      vertex 0 0 0
    endloop
  endfacet
  facet normal 0 -1 0
    outer loop
      vertex -17.9884 0 27.7321
      vertex 0 0 0
      vertex 6.15776e-15 0 27.7321
    endloop
  endfacet
  facet normal 0 1 -0
    outer loop
      vertex 0 234.95 0
      vertex -17.9884 234.95 27.7321
      vertex 6.15776e-15 234.95 27.7321
    endloop
  endfacet
  facet normal -0 1 0
    outer loop
      vertex -60.325 234.95 1.33948e-14
      vertex -17.9884 234.95 27.7321
      vertex 0 234.95 0
    endloop
  endfacet
  facet normal 0 1 0
    outer loop
      vertex -17.9884 234.95 27.7321
      vertex -60.325 234.95 1.33948e-14
      vertex -60.325 234.95 10
    endloop
  endfacet
  facet normal -0.809017 -0.587785 0
    outer loop
      vertex -50.8 73.025 1.12799e-14
      vertex -51.8969 74.5348 9.525
      vertex -51.8969 74.5348 1.15234e-14
    endloop
  endfacet
  facet normal -0.809017 -0.587785 0
    outer loop
      vertex -51.8969 74.5348 9.525
      vertex -50.8 73.025 1.12799e-14
      vertex -50.8 73.025 9.525
    endloop
  endfacet
  facet normal 1 -0 0
    outer loop
      vertex -53.6718 72.0919 9.525
      vertex -53.6718 73.9581 1.19175e-14
      vertex -53.6718 73.9581 9.525
    endloop
  endfacet
  facet normal 1 0 0
    outer loop
      vertex -53.6718 73.9581 1.19175e-14
      vertex -53.6718 72.0919 9.525
      vertex -53.6718 72.0919 1.19175e-14
    endloop
  endfacet
  facet normal 0.309019 -0.951056 0
    outer loop
      vertex -53.6718 73.9581 1.19175e-14
      vertex -51.8969 74.5348 9.525
      vertex -53.6718 73.9581 9.525
    endloop
  endfacet
  facet normal 0.309019 -0.951056 0
    outer loop
      vertex -51.8969 74.5348 9.525
      vertex -53.6718 73.9581 1.19175e-14
      vertex -51.8969 74.5348 1.15234e-14
    endloop
  endfacet
  facet normal 0 0 -1
    outer loop
      vertex -51.8969 71.5152 9.525
      vertex -51.8969 74.5348 9.525
      vertex -50.8 73.025 9.525
    endloop
  endfacet
  facet normal 0 0 -1
    outer loop
      vertex -53.6718 72.0919 9.525
      vertex -51.8969 74.5348 9.525
      vertex -51.8969 71.5152 9.525
    endloop
  endfacet
  facet normal 0 0 -1
    outer loop
      vertex -51.8969 74.5348 9.525
      vertex -53.6718 72.0919 9.525
      vertex -53.6718 73.9581 9.525
    endloop
  endfacet
  facet normal -0.809017 0.587785 0
    outer loop
      vertex -51.8969 71.5152 1.15234e-14
      vertex -50.8 73.025 9.525
      vertex -50.8 73.025 1.12799e-14
    endloop
  endfacet
  facet normal -0.809017 0.587785 0
    outer loop
      vertex -50.8 73.025 9.525
      vertex -51.8969 71.5152 1.15234e-14
      vertex -51.8969 71.5152 9.525
    endloop
  endfacet
  facet normal 0.309016 0.951057 0
    outer loop
      vertex -51.8969 71.5152 9.525
      vertex -53.6718 72.0919 1.19175e-14
      vertex -53.6718 72.0919 9.525
    endloop
  endfacet
  facet normal 0.309016 0.951057 0
    outer loop
      vertex -53.6718 72.0919 1.19175e-14
      vertex -51.8969 71.5152 9.525
      vertex -51.8969 71.5152 1.15234e-14
    endloop
  endfacet
  facet normal -0.809016 -0.587787 0
    outer loop
      vertex -50.8 161.925 1.12799e-14
      vertex -51.8969 163.435 9.525
      vertex -51.8969 163.435 1.15234e-14
    endloop
  endfacet
  facet normal -0.809016 -0.587787 0
    outer loop
      vertex -51.8969 163.435 9.525
      vertex -50.8 161.925 1.12799e-14
      vertex -50.8 161.925 9.525
    endloop
  endfacet
  facet normal 1 -0 0
    outer loop
      vertex -53.6718 160.992 9.525
      vertex -53.6718 162.858 1.19175e-14
      vertex -53.6718 162.858 9.525
    endloop
  endfacet
  facet normal 1 0 0
    outer loop
      vertex -53.6718 162.858 1.19175e-14
      vertex -53.6718 160.992 9.525
      vertex -53.6718 160.992 1.19175e-14
    endloop
  endfacet
  facet normal 0.309016 -0.951057 0
    outer loop
      vertex -53.6718 162.858 1.19175e-14
      vertex -51.8969 163.435 9.525
      vertex -53.6718 162.858 9.525
    endloop
  endfacet
  facet normal 0.309016 -0.951057 0
    outer loop
      vertex -51.8969 163.435 9.525
      vertex -53.6718 162.858 1.19175e-14
      vertex -51.8969 163.435 1.15234e-14
    endloop
  endfacet
  facet normal 0 0 -1
    outer loop
      vertex -51.8969 160.415 9.525
      vertex -51.8969 163.435 9.525
      vertex -50.8 161.925 9.525
    endloop
  endfacet
  facet normal 0 0 -1
    outer loop
      vertex -53.6718 160.992 9.525
      vertex -51.8969 163.435 9.525
      vertex -51.8969 160.415 9.525
    endloop
  endfacet
  facet normal 0 0 -1
    outer loop
      vertex -51.8969 163.435 9.525
      vertex -53.6718 160.992 9.525
      vertex -53.6718 162.858 9.525
    endloop
  endfacet
  facet normal 0.309023 0.951055 0
    outer loop
      vertex -51.8969 160.415 9.525
      vertex -53.6718 160.992 1.19175e-14
      vertex -53.6718 160.992 9.525
    endloop
  endfacet
  facet normal 0.309023 0.951055 0
    outer loop
      vertex -53.6718 160.992 1.19175e-14
      vertex -51.8969 160.415 9.525
      vertex -51.8969 160.415 1.15234e-14
    endloop
  endfacet
  facet normal -0.809019 0.587783 0
    outer loop
      vertex -51.8969 160.415 1.15234e-14
      vertex -50.8 161.925 9.525
      vertex -50.8 161.925 1.12799e-14
    endloop
  endfacet
  facet normal -0.809019 0.587783 0
    outer loop
      vertex -50.8 161.925 9.525
      vertex -51.8969 160.415 1.15234e-14
      vertex -51.8969 160.415 9.525
    endloop
  endfacet
  facet normal -0.664861 -0.266534 0.697796
    outer loop
      vertex -58.2116 72.6035 72.6035
      vertex -17.9884 89.7429 117.475
      vertex -47.0942 117.475 100.336
    endloop
  endfacet
  facet normal -0.664861 -0.266534 0.697796
    outer loop
      vertex -17.9884 89.7429 117.475
      vertex -58.2116 72.6035 72.6035
      vertex -29.1058 44.8715 89.7429
    endloop
  endfacet
  facet normal 0 0.525731 0.850651
    outer loop
      vertex 1.99269e-14 190.079 89.7429
      vertex 1.61212e-14 217.811 72.6035
      vertex -29.1058 190.079 89.7429
    endloop
  endfacet
  facet normal 0 0.934172 0.356822
    outer loop
      vertex 1.61212e-14 217.811 72.6035
      vertex 6.15776e-15 234.95 27.7321
      vertex -17.9884 234.95 27.7321
    endloop
  endfacet
  facet normal -0.507423 0 0.861697
    outer loop
      vertex -17.9884 145.207 117.475
      vertex -47.0942 117.475 100.336
      vertex -17.9884 89.7429 117.475
    endloop
  endfacet
  facet normal -0.928193 1.17611e-07 0.3721
    outer loop
      vertex -47.0942 117.475 100.336
      vertex -76.2 89.7429 27.7321
      vertex -58.2116 72.6035 72.6035
    endloop
  endfacet
  facet normal 0 0.525731 0.850651
    outer loop
      vertex 1.99269e-14 190.079 89.7429
      vertex -17.9884 145.207 117.475
      vertex 2.60847e-14 145.207 117.475
    endloop
  endfacet
  facet normal 0 0.525731 0.850651
    outer loop
      vertex -17.9884 145.207 117.475
      vertex 1.99269e-14 190.079 89.7429
      vertex -29.1058 190.079 89.7429
    endloop
  endfacet
  facet normal -0 0 1
    outer loop
      vertex -17.9884 145.207 117.475
      vertex 2.60847e-14 89.7429 117.475
      vertex 2.60847e-14 145.207 117.475
    endloop
  endfacet
  facet normal 0 0 1
    outer loop
      vertex 2.60847e-14 89.7429 117.475
      vertex -17.9884 145.207 117.475
      vertex -17.9884 89.7429 117.475
    endloop
  endfacet
  facet normal -0.928193 -1.17611e-07 0.3721
    outer loop
      vertex -58.2116 162.346 72.6035
      vertex -76.2 145.207 27.7321
      vertex -47.0942 117.475 100.336
    endloop
  endfacet
  facet normal -0.928193 0 0.3721
    outer loop
      vertex -76.2 145.207 27.7321
      vertex -76.2 89.7429 27.7321
      vertex -47.0942 117.475 100.336
    endloop
  endfacet
  facet normal 0 -0.525731 0.850651
    outer loop
      vertex -17.9884 89.7429 117.475
      vertex 1.99269e-14 44.8715 89.7429
      vertex 2.60847e-14 89.7429 117.475
    endloop
  endfacet
  facet normal 0 -0.525731 0.850651
    outer loop
      vertex 1.99269e-14 44.8715 89.7429
      vertex -17.9884 89.7429 117.475
      vertex -29.1058 44.8715 89.7429
    endloop
  endfacet
  facet normal 0 -0.525731 0.850651
    outer loop
      vertex -29.1058 44.8715 89.7429
      vertex 1.61212e-14 17.1394 72.6035
      vertex 1.99269e-14 44.8715 89.7429
    endloop
  endfacet
  facet normal -0.664861 0.266534 0.697796
    outer loop
      vertex -17.9884 145.207 117.475
      vertex -29.1058 190.079 89.7429
      vertex -47.0942 117.475 100.336
    endloop
  endfacet
  facet normal -0.664861 0.266534 0.697796
    outer loop
      vertex -29.1058 190.079 89.7429
      vertex -58.2116 162.346 72.6035
      vertex -47.0942 117.475 100.336
    endloop
  endfacet
  facet normal 0 -0.934172 0.356822
    outer loop
      vertex -17.9884 0 27.7321
      vertex 6.15776e-15 0 27.7321
      vertex 1.61212e-14 17.1394 72.6035
    endloop
  endfacet
  facet normal -0.269234 -0.828615 0.490826
    outer loop
      vertex -63.7046 0.755435 10
      vertex -61.8123 0.140594 10
      vertex 1.61212e-14 17.1394 72.6035
    endloop
  endfacet
  facet normal -0.995365 -0.0961712 -0
    outer loop
      vertex -68.1999 6.94267 10
      vertex -76.2 89.7429 1.69198e-14
      vertex -68.1999 6.94267 1.51434e-14
    endloop
  endfacet
  facet normal -0.995365 -0.0961712 0
    outer loop
      vertex -76.2 89.7429 1.69198e-14
      vertex -68.1999 6.94267 10
      vertex -76.2 89.7429 27.7321
    endloop
  endfacet
  facet normal -0.935906 0.157863 0.314894
    outer loop
      vertex -58.2116 162.346 72.6035
      vertex -68.1999 228.007 10
      vertex -76.2 145.207 27.7321
    endloop
  endfacet
  facet normal -0.876307 -0.481753 0
    outer loop
      vertex -66.7466 3.27195 1.48207e-14
      vertex -67.7051 5.01551 10
      vertex -67.7051 5.01551 1.50336e-14
    endloop
  endfacet
  facet normal -0.876307 -0.481753 0
    outer loop
      vertex -67.7051 5.01551 10
      vertex -66.7466 3.27195 1.48207e-14
      vertex -66.7466 3.27195 10
    endloop
  endfacet
  facet normal -0.721166 -0.413264 0.555997
    outer loop
      vertex -58.2116 72.6035 72.6035
      vertex -66.7466 3.27195 10
      vertex -29.1058 44.8715 89.7429
    endloop
  endfacet
  facet normal -0.596857 -0.560487 0.574122
    outer loop
      vertex -66.7466 3.27195 10
      vertex -65.3846 1.82155 10
      vertex -29.1058 44.8715 89.7429
    endloop
  endfacet
  facet normal -1 0 0
    outer loop
      vertex -76.2 89.7429 1.69198e-14
      vertex -76.2 145.207 27.7321
      vertex -76.2 145.207 1.69198e-14
    endloop
  endfacet
  facet normal -1 -0 0
    outer loop
      vertex -76.2 145.207 27.7321
      vertex -76.2 89.7429 1.69198e-14
      vertex -76.2 89.7429 27.7321
    endloop
  endfacet
  facet normal -0.439051 0.691834 0.573237
    outer loop
      vertex -63.7046 234.195 10
      vertex -65.3846 233.128 10
      vertex -29.1058 190.079 89.7429
    endloop
  endfacet
  facet normal -0.094108 -0.995562 0
    outer loop
      vertex -61.8123 0.140594 1.37251e-14
      vertex -60.325 0 10
      vertex -61.8123 0.140594 10
    endloop
  endfacet
  facet normal -0.094108 -0.995562 -0
    outer loop
      vertex -60.325 0 10
      vertex -61.8123 0.140594 1.37251e-14
      vertex -60.325 0 1.33948e-14
    endloop
  endfacet
  facet normal -0.439051 -0.691834 0.573237
    outer loop
      vertex -29.1058 44.8715 89.7429
      vertex -65.3846 1.82155 10
      vertex -63.7046 0.755435 10
    endloop
  endfacet
  facet normal -0.367961 -0.736769 0.567252
    outer loop
      vertex -29.1058 44.8715 89.7429
      vertex -63.7046 0.755435 10
      vertex 1.61212e-14 17.1394 72.6035
    endloop
  endfacet
  facet normal -0.968583 -0.248691 0
    outer loop
      vertex -67.7051 5.01551 1.50336e-14
      vertex -68.1999 6.94267 10
      vertex -68.1999 6.94267 1.51434e-14
    endloop
  endfacet
  facet normal -0.968583 -0.248691 0
    outer loop
      vertex -68.1999 6.94267 10
      vertex -67.7051 5.01551 1.50336e-14
      vertex -67.7051 5.01551 10
    endloop
  endfacet
  facet normal -0.995365 0.0961713 0
    outer loop
      vertex -76.2 145.207 1.69198e-14
      vertex -68.1999 228.007 10
      vertex -68.1999 228.007 1.51434e-14
    endloop
  endfacet
  facet normal -0.995365 0.0961713 0
    outer loop
      vertex -68.1999 228.007 10
      vertex -76.2 145.207 1.69198e-14
      vertex -76.2 145.207 27.7321
    endloop
  endfacet
  facet normal -0.535826 -0.844328 0
    outer loop
      vertex -65.3846 1.82155 1.45183e-14
      vertex -63.7046 0.755435 10
      vertex -65.3846 1.82155 10
    endloop
  endfacet
  facet normal -0.535826 -0.844328 -0
    outer loop
      vertex -63.7046 0.755435 10
      vertex -65.3846 1.82155 1.45183e-14
      vertex -63.7046 0.755435 1.41453e-14
    endloop
  endfacet
  facet normal -0.309018 -0.951056 0
    outer loop
      vertex -63.7046 0.755435 1.41453e-14
      vertex -61.8123 0.140594 10
      vertex -63.7046 0.755435 10
    endloop
  endfacet
  facet normal -0.309018 -0.951056 -0
    outer loop
      vertex -61.8123 0.140594 10
      vertex -63.7046 0.755435 1.41453e-14
      vertex -61.8123 0.140594 1.37251e-14
    endloop
  endfacet
  facet normal -0.0918188 -0.971345 0.219224
    outer loop
      vertex -61.8123 0.140594 10
      vertex -60.325 0 10
      vertex -17.9884 0 27.7321
    endloop
  endfacet
  facet normal -0.894488 0.229665 0.383595
    outer loop
      vertex -67.7051 229.934 10
      vertex -68.1999 228.007 10
      vertex -58.2116 162.346 72.6035
    endloop
  endfacet
  facet normal -0.728968 -0.684548 0
    outer loop
      vertex -65.3846 1.82155 1.45183e-14
      vertex -66.7466 3.27195 10
      vertex -66.7466 3.27195 1.48207e-14
    endloop
  endfacet
  facet normal -0.728968 -0.684548 0
    outer loop
      vertex -66.7466 3.27195 10
      vertex -65.3846 1.82155 1.45183e-14
      vertex -65.3846 1.82155 10
    endloop
  endfacet
  facet normal -0.935906 -0.157863 0.314894
    outer loop
      vertex -76.2 89.7429 27.7321
      vertex -68.1999 6.94267 10
      vertex -58.2116 72.6035 72.6035
    endloop
  endfacet
  facet normal -0.596858 0.560486 0.574122
    outer loop
      vertex -65.3846 233.128 10
      vertex -66.7466 231.678 10
      vertex -29.1058 190.079 89.7429
    endloop
  endfacet
  facet normal -0.168781 -0.896321 0.410026
    outer loop
      vertex 1.61212e-14 17.1394 72.6035
      vertex -61.8123 0.140594 10
      vertex -17.9884 0 27.7321
    endloop
  endfacet
  facet normal -0.968583 0.248689 0
    outer loop
      vertex -68.1999 228.007 1.51434e-14
      vertex -67.7051 229.934 10
      vertex -67.7051 229.934 1.50336e-14
    endloop
  endfacet
  facet normal -0.968583 0.248689 0
    outer loop
      vertex -67.7051 229.934 10
      vertex -68.1999 228.007 1.51434e-14
      vertex -68.1999 228.007 10
    endloop
  endfacet
  facet normal -0.367961 0.736769 0.567252
    outer loop
      vertex 1.61212e-14 217.811 72.6035
      vertex -63.7046 234.195 10
      vertex -29.1058 190.079 89.7429
    endloop
  endfacet
  facet normal -0.0918188 0.971345 0.219224
    outer loop
      vertex -60.325 234.95 10
      vertex -61.8123 234.809 10
      vertex -17.9884 234.95 27.7321
    endloop
  endfacet
  facet normal -0.894487 -0.229666 0.383596
    outer loop
      vertex -68.1999 6.94267 10
      vertex -67.7051 5.01551 10
      vertex -58.2116 72.6035 72.6035
    endloop
  endfacet
  facet normal -0.733727 -0.403369 0.546751
    outer loop
      vertex -67.7051 5.01551 10
      vertex -66.7466 3.27195 10
      vertex -58.2116 72.6035 72.6035
    endloop
  endfacet
  facet normal -0.733726 0.403371 0.546753
    outer loop
      vertex -66.7466 231.678 10
      vertex -67.7051 229.934 10
      vertex -58.2116 162.346 72.6035
    endloop
  endfacet
  facet normal -0.721166 0.413264 0.555997
    outer loop
      vertex -29.1058 190.079 89.7429
      vertex -66.7466 231.678 10
      vertex -58.2116 162.346 72.6035
    endloop
  endfacet
  facet normal -0.535827 0.844328 0
    outer loop
      vertex -63.7046 234.195 10
      vertex -65.3846 233.128 1.45183e-14
      vertex -65.3846 233.128 10
    endloop
  endfacet
  facet normal -0.535827 0.844328 0
    outer loop
      vertex -65.3846 233.128 1.45183e-14
      vertex -63.7046 234.195 10
      vertex -63.7046 234.195 1.41453e-14
    endloop
  endfacet
  facet normal -0.876306 0.481755 0
    outer loop
      vertex -67.7051 229.934 1.50336e-14
      vertex -66.7466 231.678 10
      vertex -66.7466 231.678 1.48207e-14
    endloop
  endfacet
  facet normal -0.876306 0.481755 0
    outer loop
      vertex -66.7466 231.678 10
      vertex -67.7051 229.934 1.50336e-14
      vertex -67.7051 229.934 10
    endloop
  endfacet
  facet normal -0.728969 0.684547 0
    outer loop
      vertex -66.7466 231.678 1.48207e-14
      vertex -65.3846 233.128 10
      vertex -65.3846 233.128 1.45183e-14
    endloop
  endfacet
  facet normal -0.728969 0.684547 0
    outer loop
      vertex -65.3846 233.128 10
      vertex -66.7466 231.678 1.48207e-14
      vertex -66.7466 231.678 10
    endloop
  endfacet
  facet normal -0.269233 0.828616 0.490825
    outer loop
      vertex -61.8123 234.809 10
      vertex -63.7046 234.195 10
      vertex 1.61212e-14 217.811 72.6035
    endloop
  endfacet
  facet normal -0.168781 0.896321 0.410026
    outer loop
      vertex -17.9884 234.95 27.7321
      vertex -61.8123 234.809 10
      vertex 1.61212e-14 217.811 72.6035
    endloop
  endfacet
  facet normal -0.309016 0.951057 0
    outer loop
      vertex -61.8123 234.809 10
      vertex -63.7046 234.195 1.41453e-14
      vertex -63.7046 234.195 10
    endloop
  endfacet
  facet normal -0.309016 0.951057 0
    outer loop
      vertex -63.7046 234.195 1.41453e-14
      vertex -61.8123 234.809 10
      vertex -61.8123 234.809 1.37251e-14
    endloop
  endfacet
  facet normal -0.094108 0.995562 0
    outer loop
      vertex -60.325 234.95 10
      vertex -61.8123 234.809 1.37251e-14
      vertex -61.8123 234.809 10
    endloop
  endfacet
  facet normal -0.094108 0.995562 0
    outer loop
      vertex -61.8123 234.809 1.37251e-14
      vertex -60.325 234.95 10
      vertex -60.325 234.95 1.33948e-14
    endloop
  endfacet
endsolid OpenSCAD_Model
