<?xml version="1.0" encoding="UTF-8"?>
<svg width="251.57" height="82.519" version="1.0" xmlns="http://www.w3.org/2000/svg" xmlns:cc="http://creativecommons.org/ns#" xmlns:dc="http://purl.org/dc/elements/1.1/" xmlns:rdf="http://www.w3.org/1999/02/22-rdf-syntax-ns#">
 <metadata>
  <rdf:RDF>
   <cc:Work rdf:about="">
    <dc:format>image/svg+xml</dc:format>
    <dc:type rdf:resource="http://purl.org/dc/dcmitype/StillImage"/>
    <dc:title/>
   </cc:Work>
  </rdf:RDF>
 </metadata>
 <g transform="translate(-986.45 -549.23)">
  <g transform="matrix(.76998 0 0 .76998 955.71 26.834)">
   <path d="m225.51 761.79h-7e-3c-0.61733 0-1.1624 0.20365-1.6747 0.61745-0.38093 0.30204-0.6437 0.70934-0.85386 1.1625h0.0263c0.21015-0.45318 0.47293-0.86048 0.84723-1.1625 0.51231-0.4138 1.0574-0.61082 1.6617-0.61745z" fill="#bd0000" fill-rule="evenodd"/>
   <path d="m225.53 761.79h-0.0196c0.63708 7e-3 1.0574 0.2234 1.3398 0.68971 0.12477 0.19702 0.1904 0.49256 0.1904 0.86686 0 0.0658-0.0131 0.15114-0.0196 0.2234h0.0262c0-0.0723 0.0131-0.15764 0.0131-0.2234 0-0.3743-0.0591-0.66984-0.1839-0.86686-0.28241-0.47293-0.70933-0.68971-1.3464-0.68971z" fill="#bd0000" fill-rule="evenodd"/>
   <path d="m242.27 772c0.26666 0.68537 0.5332 1.3697 0.81093 2.039 0.42773 0.90933 0.922 1.7797 1.5164 2.5923 3.2105 4.3641 8.5872 6.7537 15.414 7.3486h7.343c2.3217-0.18116 4.7546-0.51882 7.2764-1.0121 4.3491-0.85043 8.9593-2.1568 13.747-3.9026 3.627-1.3224 7.3541-2.8871 11.137-4.7057 8.2373-3.9487 16.747-9.0415 25.095-15.188 2.7495-2.0224 5.3877-4.0976 7.9206-6.2077 2.3217-1.9318 4.549-3.8937 6.6765-5.8772 5.9376-5.7222 10.42-11.534 12.958-16.637 2.6439-5.314 3.1716-9.8574 1.0053-12.72-1.3275-1.7569-3.5493-2.6984-6.4098-2.92 12.886-9.6692 20.396-21.398 17.702-28.794-0.85545-2.3601-2.7384-4.1209-5.4378-5.0946-1.1997-0.43149-2.5495-0.70488-4.0214-0.82931h-3.9658c-5.5377 0.39942-13.591 2.3823-20.423 5.7305" fill-opacity="0" stroke="#663266" stroke-width="3.2839"/>
   <path d="m62.777 682.67-22.843 99.665h60.105 105.68 54.964c-6.548-0.57145-11.718-2.8701-14.798-7.0603-0.57133-0.77509-1.0435-1.61-1.4572-2.4835-0.26277-0.64359-0.5098-1.293-0.75945-1.9497-0.65682-2.0886-0.91869-4.4061-0.80043-6.8757 0.32842-6.883 3.5581-15.07 9.1538-23.644 5.9438-9.1113 14.558-18.661 25.224-27.523 2.3907-1.9848 4.8626-3.9447 7.4502-5.8495 3.1985-2.3531 6.4217-4.5204 9.6464-6.5472 11.881-7.48 23.733-12.714 34.234-15.373-10.036 3.274-21.31 8.8321-32.449 16.399-0.40067 0.27054-0.79632 0.5477-1.1905 0.82098-6.1802 4.2822-11.779 8.83-16.666 13.423-15.723 14.784-24.034 30.103-20.257 39.078 0.26928 0.61733 0.59027 1.2068 0.96458 1.7651 4.0589 5.97 14.118 7.0019 26.866 3.7969 0.86698-0.21666 1.734-0.4622 2.6271-0.71835 4.072-1.1755 8.3953-2.7634 12.848-4.7205 1.0705-0.47293 2.1526-0.95887 3.2428-1.4778 0.11164-0.0525 0.21666-0.10502 0.3283-0.16415 14.055-6.9834 24.856-15.019 27.195-19.847 0.51232-1.0502 0.63548-1.9456 0.28732-2.6476-1.6682-3.3824-13.341-1.0973-27.482 5.0284-1.1362 0.49267-2.2855 0.99951-3.4481 1.5393 0.94574-0.87805 1.9302-1.7595 2.935-2.6271 1.6026-1.3806 3.2618-2.7305 5.0285-4.0638 2.765-2.0938 5.5603-3.9866 8.3123-5.6646 12.886-9.7216 19.4-18.918 18.041-22.33-0.25615-0.64301-0.80122-1.0852-1.642-1.3546-2.6862-0.85442-7.589 0.16541-13.546 2.6066-4.9127 2.015-10.555 5.0034-16.276 8.7228l-0.77988 0.51312-0.14372 0.0821-2.7501 1.8266 1.5803-2.8938c2.3447-4.2921 6.1638-8.7703 10.919-12.93 3.4874-3.0416 7.4717-5.9073 11.76-8.4149 1.6222-0.94974 3.242-1.8318 4.8642-2.6271 1.6617-0.81184 3.3241-1.5333 4.9463-2.1756 4.7131-1.8639 9.8905-4.2177 13.814-4.5256-0.3573 0-11.7 1.2213-11.7 1.2213h-37.149-163.8-73.076zm177.93 0.14371c-0.64359 9.8233 1.261 24.212 5.5826 40.186 0.76846 2.8425 1.605 5.7353 2.5245 8.6612 0.57144 1.8068 1.1609 3.5853 1.7651 5.3362-0.35467 0.52145-0.71173 1.0397-1.0468 1.5599-5.3921 8.2634-8.5438 16.073-9.3385 22.864-2.279-7.6317-3.9947-15.991-4.9668-24.855-0.27579-2.5396-0.49165-5.051-0.63616-7.5323-1.064-18.024 1.2889-34.362 6.1161-46.22zm-107.61 12.786c0.12294-3e-3 0.24417 0 0.3694 0h24.28c2.0754 0 3.6804 0.38903 4.8231 1.1699 1.1362 0.78548 1.5623 1.8015 1.293 3.0376l-2.8938 13.074h-8.5586l2.8118-12.725h-21.427l-7.7376 34.973-2.7914 12.664h21.407l0.0206-0.0821 4.2896-19.375h-10.057l0.96469-4.3716c0-1.1e-4 18.615 0 18.615 0 0-1.1e-4 -5.3362 24.177-5.3362 24.177-0.0723 0.34417-0.19874 0.65592-0.36951 0.9647-0.44006 0.80122-1.2076 1.4875-2.2781 2.0524-1.4843 0.78148-3.2608 1.1698-5.3364 1.1698h-24.259c-2.0754 0-3.6804-0.38834-4.8232-1.1698-1.1362-0.7816-1.5688-1.7797-1.293-3.0171l10.693-48.334c0.27579-1.236 1.1362-2.2521 2.627-3.0376 0.0526-0.0283 0.11176-0.0347 0.16427-0.0615 1.3608-0.6816 2.9578-1.0648 4.8027-1.1084zm38.052 0h30.56c2.0491 0 3.6598 0.38903 4.8027 1.1699 1.1493 0.78548 1.5893 1.8015 1.3135 3.0376l-5.7058 25.778c-0.26928 1.2282-1.1502 2.2302-2.6476 3.017-1.4974 0.78947-3.26 1.1904-5.3158 1.1904h-22.207l-4.2895 19.354-0.69781 3.1813h-8.3739l0.63628-2.8734 11.925-53.855zm42.218 0h8.3738l-9.4821 42.834-2.073 9.359h20.032c0.21015 1.5361 0.45557 3.045 0.71835 4.5358h-30.129l2.3807-10.755 10.18-45.974zm-34.85 4.5565-5.5621 25.08h20.873l5.5415-25.08h-20.853zm-44.509 59.194c0.082-3e-3 0.16381 0 0.24634 0 0.972 0 1.8209 0.17065 2.5039 0.49256 0.72909 0.34154 1.2504 0.84883 1.5393 1.5188 0.28241 0.6502 0.35626 1.3882 0.20524 2.196l-0.0615 0.30787h-2.4013c-1.1e-4 0 0.0204-0.28732 0.0204-0.28732 0.0621-0.56448-8e-3 -1.0083-0.22567-1.3135-0.0284-0.0382-0.0696-0.0888-0.10274-0.12317-0.0541-0.0554-0.1355-0.11849-0.20513-0.16415-0.33606-0.21175-0.86161-0.32841-1.5393-0.32841-0.89986 0-1.5722 0.15673-2.0319 0.47201-0.44667 0.30867-0.72908 0.65352-0.82098 1.0673-0.092 0.4203 0.059 0.64119 0.16415 0.75933 3e-3 3e-3 0.0166 0.0169 0.0205 0.0205 0.1331 0.11335 0.59519 0.37933 2.0319 0.71836 1.3004 0.31528 2.1616 0.59849 2.6476 0.84152 0.73559 0.3743 1.2495 0.85956 1.5188 1.4571 0.26929 0.5912 0.32842 1.2832 0.16415 2.0319-0.16415 0.72909-0.53605 1.4014-1.0878 2.0319-0.54507 0.63046-1.2388 1.1296-2.073 1.4778-0.82748 0.34154-1.7354 0.53355-2.6681 0.53355-1.1823 0-2.1313-0.17888-2.8734-0.53355-0.77498-0.36779-1.3341-0.94825-1.6624-1.7036-0.31529-0.73548-0.38263-1.5705-0.20536-2.4834l0.0616-0.28732h2.3603l-0.0205 0.28732c-0.0591 0.54507-8e-4 0.98513 0.1436 1.3135 0.13801 0.31529 0.40067 0.57635 0.82098 0.77988 0.44667 0.21678 1.0049 0.32842 1.642 0.32842 0.57144 0 1.0936-0.096 1.5599-0.26677 0.45969-0.16427 0.82509-0.38093 1.0878-0.65683 0.25616-0.27579 0.40638-0.56733 0.47202-0.88251 0.0657-0.28241 0.0501-0.52133-0.0615-0.71835-0.12477-0.21015-0.37191-0.39656-0.75945-0.55409 0-1.2e-4 -2.0114-0.5953-2.0114-0.5953-1.123-0.28241-1.8792-0.5517-2.3192-0.82098-0.5977-0.35456-1.0286-0.80945-1.252-1.3545-0.22328-0.53857-0.24702-1.1355-0.10251-1.7857 0.15103-0.69621 0.48675-1.3586 1.0057-1.9497 0.52544-0.5977 1.2035-1.0665 2.0114-1.3752 0.71424-0.2678 1.4658-0.42488 2.2576-0.45147zm21.55 0.041c0.1299-0.01 0.25205 0 0.38994 0l1.4777 0.16415 0.49257 0.0411c1.1e-4 0-0.71825 1.8266-0.71825 1.8266l-0.14371 0.28732-1.1288-0.10262c-0.33332 0-0.57817 0.0515-0.7389 0.16427-0.0106 8e-3 -0.0312 0.0324-0.041 0.041-0.0216 0.0189-0.0578 0.0518-0.0821 0.0822-0.0989 0.12957-0.21917 0.36118-0.30787 0.77989 0 0-0.0427 0.17727-0.0821 0.32841h1.765l-0.45147 2.0319h-1.724c-0.13139 0.59107-1.7446 7.8196-1.7446 7.8196h-2.3809s1.5476-6.9461 1.7446-7.8196h-1.3751l0.45147-2.0319h1.3546c0.0656-0.28241 0.16414-0.63628 0.16414-0.63628 0.14452-0.65683 0.29554-1.1288 0.49257-1.4573 0.2694-0.45318 0.64941-0.83239 1.1288-1.1083 0.39497-0.22945 0.89438-0.36666 1.4573-0.41049zm5.6852 0.10262s-0.62235 2.8004-0.77988 3.5097h1.5392l-0.45147 2.0319h-1.5393c-0.12476 0.5647-1.1083 4.9463-1.1083 4.9463s-0.0821 0.52623-0.0821 0.67726c1.2e-4 5e-3 -4.5e-4 0.0168 0 0.0205 3.4e-4 2e-3 -4.5e-4 0.0192 0 0.0205 5.7e-4 1e-3 0.0196-8e-4 0.0204 0l0.24633 0.0204 1.1288-0.0821-0.12317 1.8266 0.0205 0.32841-1.6214 0.1847c-0.64359 0-1.1157-0.10502-1.4573-0.32841-0.36117-0.23641-0.57133-0.54998-0.65671-0.94404-0.0131-0.0723-0.0411-0.17739-0.0411-0.32841 0-0.29554 0.0558-0.79552 0.24634-1.6625 0 0 0.86276-3.8651 1.0467-4.6794h-1.1287l0.45147-2.0319h1.1288c0.10513-0.47293 0.47202-2.0935 0.47202-2.0935l1.9088-1.0057 0.77988-0.41049zm-75.632 0.0821h9.2359l-0.5131 2.2988h-6.7524c-0.10506 0.46631-0.52622 2.3545-0.67728 3.0376h5.8494l-0.51311 2.2987h-5.8494c-0.12479 0.57144-1.252 5.6441-1.252 5.6441h-2.4834l2.9555-13.279zm12.376 3.2429c0.09266-0.0114 0.19392 0 0.28731 0 0.5911 0 1.1371 0.17979 1.6625 0.5541l0.32839 0.22579-1.2725 2.0934-0.34892-0.24634c-0.25612-0.16415-0.53196-0.24622-0.82095-0.24622-0.24958 0-0.4819 0.0887-0.71834 0.24622-0.24958 0.16427-0.45811 0.38184-0.61571 0.67738-0.27585 0.50569-0.47783 1.0721-0.61575 1.6829l-1.1083 5.0489h-2.3808s2.1961-9.8515 2.1961-9.8515h2.2166s-0.07638 0.29874-0.10264 0.41038c0.10511-0.0788 0.21591-0.1871 0.30789-0.24623 0.3181-0.18983 0.65411-0.30832 0.98515-0.34885zm7.0603 0c0.14335-0.0109 0.28446 0 0.43102 0 1.3398 0 2.3537 0.46951 3.017 1.3956 0.41377 0.59758 0.63628 1.3365 0.63628 2.2166 0 0.48595-0.0599 1.009-0.18472 1.5803l-0.18472 0.71835h-6.6909c-0.0131 0.1379-0.0205 0.28572-0.0205 0.41049 0 0.51231 0.10511 0.91538 0.32838 1.2109 0.10612 0.14451 0.22914 0.27465 0.36944 0.36939 0.26454 0.1726 0.60601 0.26689 1.0057 0.26689 0.48599 0 0.9129-0.1339 1.3135-0.38994 0.38091-0.24303 0.74543-0.63137 1.0673-1.1699h2.545s-0.22574 0.49256-0.22574 0.49256c-0.48603 0.98524-1.1642 1.7536-2.0114 2.2988-0.84722 0.54507-1.8595 0.84141-2.976 0.84141-1.4514 0-2.5318-0.46951-3.2018-1.3956-0.66335-0.90636-0.8062-2.1592-0.45156-3.7354 0.3547-1.6026 1.0623-2.8832 2.0935-3.7765 0.92422-0.80135 1.973-1.2458 3.1402-1.334zm10.693 0c0.14326-0.0109 0.28446 0 0.43092 0 1.3399 0 2.3538 0.46951 3.0171 1.3956 0.41379 0.59758 0.63616 1.3365 0.63616 2.2166 0 0.47944-0.0599 0.99495-0.1847 1.5598 0 0-0.18469 0.7389-0.18469 0.7389h-6.6909c-7e-3 0.092-0.014 0.17488-0.0205 0.26677-5e-3 0.0345 2e-3 0.0869 0 0.12317-1.9e-4 6e-3 0 0.0148 0 0.0205 0 0.0985 0.0139 0.19543 0.0205 0.28732 0.0328 0.37442 0.13054 0.68719 0.30786 0.9236 0.0338 0.046 0.0655 0.10274 0.1026 0.14372 0.30081 0.32179 0.72656 0.49256 1.2725 0.49256 0.48602 0 0.91945-0.1339 1.3135-0.38994 0.38104-0.24303 0.74552-0.63137 1.0673-1.1699h2.5654l-0.24623 0.49256c-0.48606 0.98524-1.1641 1.7536-2.0114 2.2988-0.84723 0.54507-1.8595 0.84141-2.976 0.84141-1.4515 0-2.5319-0.46951-3.2018-1.3956-0.43346-0.59108-0.63624-1.3439-0.63624-2.2371 0-0.1379 7e-3 -0.28652 0.0205-0.43104 0.0263-0.34142 0.0788-0.68628 0.16419-1.0672 0.35465-1.596 1.0418-2.8832 2.0729-3.7765 0.92419-0.80135 1.9934-1.2458 3.1608-1.334zm29.124 0c0.14669-0.0113 0.28161 0 0.43104 0 1.3662 0 2.4161 0.46209 3.0991 1.3751 0.67657 0.91287 0.84072 2.1443 0.49267 3.6943-0.26928 1.2085-0.65842 2.1846-1.1905 2.894-0.53195 0.70933-1.21 1.2889-2.0114 1.6829-0.79461 0.39405-1.6361 0.59519-2.4834 0.59519-1.3924 0-2.4292-0.47613-3.0992-1.3956-0.43343-0.58457-0.65671-1.3373-0.65671-2.2371 0-0.48594 0.0533-1.0024 0.18469-1.5803 0.39405-1.7602 1.1986-3.1008 2.3808-3.9612 0.86778-0.62647 1.8262-0.98833 2.8529-1.0672zm36.061 0c0.17317-0.0107 0.33344 0 0.51311 0 0.82749 0 1.4777 0.0837 1.9703 0.28732 0.52544 0.21016 0.89814 0.50729 1.1083 0.86196 0.20365 0.33492 0.30787 0.74632 0.30787 1.252l-0.24622 1.4982-0.45159 2.0319c-0.38754 1.7338-0.47281 2.384-0.49256 2.6271-0.0197 0.32841 0.0106 0.6485 0.10262 0.94415l0.16415 0.53354h-2.4218l-0.10262-0.30786c-0.0394-0.14441-0.0279-0.3283-0.041-0.49257-0.4598 0.28241-0.92029 0.53286-1.3341 0.67726-0.61082 0.21027-1.2446 0.32842-1.8883 0.32842-1.1164 0-1.9432-0.29063-2.4424-0.86196-0.38081-0.42031-0.55409-0.93422-0.55409-1.5188 0-0.22328 0.0296-0.45478 0.0821-0.6978 0.11164-0.49919 0.31449-0.96139 0.63628-1.3752 0.31528-0.40718 0.68799-0.7421 1.1083-0.98513 0.40718-0.24302 0.86116-0.41539 1.3341-0.53365l1.4573-0.24623c1.123-0.13139 1.9612-0.29474 2.5654-0.47213 0.0131-0.0656 0.0411-0.1436 0.0411-0.1436 0.0952-0.42259 0.0833-0.74027-0.0205-0.90305-8e-3 -0.0105-0.0324-0.0321-0.0411-0.0411-0.0221-0.0236-0.0562-0.0607-0.0821-0.0821-0.24702-0.19543-0.66824-0.28732-1.2315-0.28732-0.63708 0-1.1083 0.10422-1.4366 0.30786-0.32191 0.20354-0.61985 0.57624-0.88262 1.1083h-2.4834l0.22568-0.49256c0.29554-0.68308 0.64781-1.2496 1.0879-1.683 0.44006-0.43343 1.0344-0.76927 1.724-1.0057 0.52841-0.17442 1.1056-0.29017 1.724-0.3283zm10.406 0c0.0927-0.0114 0.19394 0 0.28732 0 0.5977 0 1.1576 0.17979 1.683 0.5541l0.30786 0.22579-1.2726 2.0934-0.34884-0.24634c-0.25616-0.16415-0.51814-0.24622-0.80043-0.24622-0.24965 0-0.49599 0.0887-0.73891 0.24622-0.24965 0.16427-0.43103 0.38184-0.59518 0.67738-0.26929 0.50569-0.47784 1.0721-0.61574 1.6829l-1.1288 5.0489h-2.3809s2.1962-9.8515 2.1962-9.8515h2.2166s-0.0558 0.29874-0.0821 0.41038c0.10502-0.0788 0.20936-0.1871 0.30787-0.24623 0.313-0.18983 0.63377-0.30832 0.96458-0.34885zm7.0398 0c0.14315-0.0109 0.28447 0 0.43093 0 1.3399 0 2.3603 0.46951 3.0171 1.3956 0.42031 0.59758 0.63617 1.3365 0.63617 2.2166 0 0.48595-0.0804 1.009-0.20524 1.5803l-0.16415 0.71835h-6.6909c-0.0131 0.1379-0.0411 0.28572-0.0411 0.41049 0 0.51231 0.11175 0.91538 0.32841 1.2109 0.0338 0.046 0.086 0.10274 0.12317 0.14372 0.0216 0.0229 0.0594 0.0607 0.0821 0.0821 0.2936 0.26689 0.69325 0.41049 1.1904 0.41049 0.48605 0 0.91298-0.1339 1.3135-0.38994 0.38104-0.24303 0.7389-0.63137 1.0673-1.1699h2.5656l-0.24634 0.49256c-0.48606 0.98524-1.1707 1.7536-2.0114 2.2988-0.85385 0.54507-1.8529 0.84141-2.976 0.84141-1.4514 0-2.5113-0.46951-3.1812-1.3956-0.66333-0.90636-0.82017-2.1592-0.47213-3.7354 0.35467-1.6026 1.0419-2.8832 2.073-3.7765 0.93-0.80135 1.9946-1.2458 3.1607-1.334zm-35.938 0.1847h2.4424s0.30124 5.846 0.30786 5.9314c0.0985-0.20936 0.175-0.38549 0.1847-0.41049 0 0 2.6887-5.5209 2.6887-5.5209h2.2371s0.20525 5.7754 0.20525 5.8083c0.0656-0.11815 3.058-5.8083 3.058-5.8083h2.4218s-5.3362 9.8515-5.3362 9.8515h-2.196s-0.21267-5.3419-0.2258-5.6441c-0.90636 1.8587-2.7502 5.6441-2.7502 5.6441h-2.2577s-0.77988-9.8515-0.77988-9.8515zm-57.344 1.8676c-0.56575 0.0239-1.0796 0.22785-1.5598 0.61574-0.38091 0.30216-0.63789 0.71675-0.84148 1.1698 0 1.2e-4 4.0432 0 4.0432 0 7e-3 -0.0721 0.0205-0.16004 0.0205-0.22568 0-0.37441-0.0665-0.66504-0.18472-0.86207-0.28894-0.47281-0.7175-0.69781-1.3546-0.69781-0.0382 0-0.0854-2e-3 -0.12313 0zm10.693 0c-0.56574 0.0239-1.0795 0.22785-1.5598 0.61574-0.38091 0.30216-0.6313 0.71675-0.84148 1.1698 0 1.2e-4 4.0433 0 4.0433 0 7e-3 -0.0721 0.0206-0.16004 0.0206-0.22568 0-0.37441-0.0599-0.66504-0.1847-0.86207-0.0574-0.096-0.13504-0.19154-0.20524-0.26677-0.27431-0.28332-0.65169-0.43104-1.1494-0.43104-0.0382 0-0.0854-2e-3 -0.12317 0zm82.712 0c-0.58183 0.0179-1.1252 0.21495-1.6215 0.61574-0.3743 0.30216-0.63126 0.71675-0.84141 1.1698 0 1.2e-4 4.0227 0 4.0227 0 7e-3 -0.0721 0.0206-0.16004 0.0206-0.22568 0-0.37441-0.0599-0.66504-0.1847-0.86207-0.28241-0.46631-0.71756-0.69119-1.3546-0.69781-0.0188 2.3e-4 -0.0223-5.7e-4 -0.041 0zm-53.773 0.0411c-0.54291 0.0644-1.0478 0.3122-1.5188 0.73879-0.56482 0.51231-0.97451 1.3168-1.2109 2.3808-0.0985 0.44656-0.14371 0.8284-0.14371 1.1698 0 0.46631 0.0895 0.8325 0.26688 1.1083 0.0471 0.0709 0.10982 0.14566 0.16415 0.20525 0.292 0.31003 0.69964 0.47213 1.2109 0.47213 0.66334 0 1.2479-0.24714 1.8061-0.75945 0.56482-0.51882 0.96789-1.3316 1.2109-2.4218 0.22328-0.99825 0.19211-1.7437-0.12317-2.2166-0.30205-0.45969-0.74381-0.67726-1.3545-0.67726-0.10364 0-0.20729-0.012-0.30786 0zm37.087 3.5917c-0.5582 0.15114-1.1839 0.2783-2.0114 0.39006-0.61733 0.0919-1.0574 0.1888-1.3135 0.28731-0.22328 0.0919-0.40307 0.21918-0.55421 0.38995-0.1444 0.16415-0.24131 0.33651-0.28732 0.53365-0.0131 0.0788-0.0205 0.16004-0.0205 0.22568 0 5e-3 -1.2e-4 0.0153 0 0.0205 6.8e-4 0.0156-2e-3 0.0465 0 0.0616 4e-3 0.0297 0.0124 0.0748 0.0205 0.10251 3e-3 9e-3 0.0171 0.0322 0.0205 0.0411 7e-3 0.0177 0.0116 0.0448 0.0206 0.0616 9e-3 0.0166 0.03 0.0455 0.041 0.0615 0.0172 0.0236 0.0406 0.0599 0.0616 0.0821 0.16415 0.1839 0.49176 0.26677 0.96458 0.26677 0.51893 0 1.018-0.0985 1.4778-0.3283 0.45319-0.22339 0.81847-0.55672 1.0878-0.94415 0.19703-0.27579 0.35467-0.70032 0.49257-1.252zm-125.36-16.456 55.083-56.872h8.9952l-13.3 56.872h-7.3986l3.7763-16.371h-23.092l-15.692 16.371h-8.3721m29.676-22.229h18.886l3.4845-14.276c1.4063-5.6639 2.76-10.384 4.061-14.16-2.6001 3.2587-6.04 7.1252-10.32 11.599l-16.112 16.837" fill="#636" fill-rule="evenodd"/>
  </g>
 </g>
</svg>
