<?xml version="1.0" encoding="UTF-8"?>
<svg width="688.02" height="269.73" version="1.1" xmlns="http://www.w3.org/2000/svg" xmlns:cc="http://creativecommons.org/ns#" xmlns:dc="http://purl.org/dc/elements/1.1/" xmlns:rdf="http://www.w3.org/1999/02/22-rdf-syntax-ns#">
 <metadata>
  <rdf:RDF>
   <cc:Work rdf:about="">
    <dc:format>image/svg+xml</dc:format>
    <dc:type rdf:resource="http://purl.org/dc/dcmitype/StillImage"/>
    <dc:title/>
   </cc:Work>
  </rdf:RDF>
 </metadata>
 <g transform="translate(-37.155 -23.922)">
  <g transform="translate(-10.577 12.339)">
   <g fill="#bd0000" fill-rule="evenodd">
    <path d="m373.55 223.7h-0.0171c-1.6029 0-3.0182 0.52862-4.3483 1.6029-0.98903 0.7844-1.6711 1.8416-2.2168 3.0182h0.0682c0.54567-1.1766 1.2278-2.2338 2.1997-3.0182 1.3301-1.0743 2.7454-1.5859 4.3142-1.6029z"/>
    <path d="m107.04 18.253c2e-5 0-59.31 258.77-59.31 258.77h0.05329 274.38 142.71c-17.001-1.4835-30.423-7.4518-38.421-18.331-1.4835-2.0122-2.7092-4.1799-3.7835-6.4479-0.68207-1.6711-1.3237-3.3572-1.9717-5.0624-1.7052-5.4226-2.3852-11.44-2.0782-17.852 0.85262-17.871 9.238-39.128 23.767-61.388 15.432-23.657 37.798-48.451 65.491-71.459 6.207-5.1532 12.625-10.242 19.344-15.187 8.3044-6.1098 16.673-11.737 25.045-16.999 30.847-19.421 61.618-33.01 88.885-39.913-26.056 8.5005-55.328 22.931-84.249 42.577-1.0402 0.70255-2.0676 1.4222-3.0907 2.1315-16.046 11.118-30.583 22.926-43.27 34.85-40.823 38.385-62.4 78.159-52.595 101.46 0.69916 1.6029 1.5326 3.1334 2.5046 4.5828 10.538 15.5 36.656 18.18 69.754 9.8583 2.2509-0.56275 4.5018-1.2 6.8209-1.8651 10.572-3.0524 21.797-7.1747 33.358-12.256 2.7795-1.2278 5.5889-2.4896 8.4195-3.8368 0.28988-0.13641 0.56273-0.27283 0.85261-0.4263 36.492-18.132 64.536-38.995 70.607-51.53 1.3301-2.7266 1.6498-5.0513 0.74603-6.8742-4.3312-8.7819-34.639-2.849-71.353 13.056-2.95 1.2789-5.9342 2.5949-8.9524 3.9966 2.4555-2.2799 5.0112-4.5683 7.6202-6.8209 4.1608-3.5844 8.4686-7.0894 13.056-10.551 7.179-5.4363 14.437-10.351 21.582-14.708 33.456-25.241 50.37-49.117 46.84-57.978-0.66505-1.6694-2.0804-2.8179-4.2631-3.517-6.9744-2.2185-19.704 0.42929-35.17 6.7676-12.755 5.2316-27.405 12.991-42.258 22.647l-2.025 1.3322c2e-5 0-0.37302 0.21314-0.37302 0.21314 2e-5 2e-5 -7.1406 4.7426-7.1406 4.7426-2e-5 -1e-5 4.1032-7.5136 4.1032-7.5136 6.0876-11.144 16.004-22.771 28.349-33.572 9.0547-7.8969 19.399-15.338 30.534-21.848 4.2119-2.4657 8.4174-4.7559 12.629-6.8209 4.3142-2.1077 8.6306-3.9809 12.842-5.6486 12.237-4.8393 23.918-7.7798 34.104-8.5794h-28.616-96.452-425.29-33.731zm305.98 0.3731c-1.6711 25.505 3.274 62.862 14.494 104.34 1.9951 7.3802 4.1671 14.891 6.5544 22.488 1.4836 4.691 3.014 9.3088 4.5828 13.855-0.9208 1.354-1.848 2.6994-2.7177 4.0499-14 21.455-22.183 41.731-24.246 59.363-5.9171-19.815-10.372-41.518-12.896-64.532-0.71619-6.5941-1.2768-13.114-1.6519-19.557-2.7625-46.796 3.3465-89.217 15.88-120zm-279.39 33.198c0.31934-0.0075 0.63414 0 0.95918 0 0-2e-5 63.04 0 63.04 0 5.3885-2e-5 9.5556 1.0099 12.523 3.0374 2.95 2.0395 4.0563 4.6774 3.3572 7.8866 2e-5 2e-5 -7.5136 33.945-7.5136 33.945 0 3e-5 -22.221 0-22.221 0 2e-5 3e-5 7.3005-33.039 7.3005-33.039h-55.633c-2e-5 0-20.09 90.803-20.09 90.803 2e-5 0-7.2472 32.879-7.2472 32.879 0 3e-5 55.58 0 55.58 0 0 3e-5 0.0533-0.21316 0.0533-0.21316 0 2e-5 11.137-50.304 11.137-50.304 0-2e-5 -26.111 0-26.111 0 0-2e-5 2.5045-11.35 2.5045-11.35-1e-5 -2e-5 48.332 0 48.332 0 0-2e-5 -13.855 62.773-13.855 62.773-0.18757 0.89352-0.51582 1.7031-0.95919 2.5045-1.1425 2.0804-3.1355 3.8623-5.915 5.3288-3.8538 2.0292-8.4664 3.0374-13.855 3.0374 0 2e-5 -62.987 0-62.987 0-5.3885 2e-5 -9.5556-1.0082-12.523-3.0374-2.95-2.0292-4.0734-4.6207-3.3572-7.8334 1e-5 -2e-5 27.763-125.49 27.763-125.49 0.71618-3.2092 2.95-5.8472 6.8209-7.8866 0.13642-0.07331 0.28989-0.08995 0.4263-0.15986 3.533-1.7697 7.6794-2.7644 12.469-2.8776zm98.796 0c-2e-5 -2e-5 79.346 0 79.346 0 5.3203-2e-5 9.5024 1.0099 12.469 3.0374 2.9842 2.0395 4.1267 4.6774 3.4104 7.8866 2e-5 2e-5 -14.814 66.93-14.814 66.93-0.69912 3.1887-2.9863 5.7905-6.8742 7.8334-3.8879 2.0497-8.4643 3.0907-13.802 3.0907h-57.658l-11.137 50.251c0 2e-5 -1.8118 8.2597-1.8118 8.2597 1e-5 2e-5 -21.742 0-21.742 0 0 2e-5 1.6519-7.4603 1.6519-7.4603 0 2e-5 30.96-139.83 30.96-139.83zm109.61 0c-1e-5 -2e-5 21.742 0 21.742 0 2e-5 -2e-5 -24.619 111.21-24.619 111.21 2e-5 2e-5 -5.3821 24.299-5.3821 24.299 0 3e-5 52.009 0 52.009 0 0.54568 3.9885 1.183 7.9058 1.8651 11.777-2e-5 2e-5 -78.227 0-78.227 0 2e-5 2e-5 6.1814-27.923 6.1814-27.923 2e-5 0 26.431-119.37 26.431-119.37zm-90.483 11.83c2e-5 0-14.441 65.118-14.441 65.118 0-2e-5 54.194 0 54.194 0-1e-5 -2e-5 14.388-65.118 14.388-65.118h-54.141zm-45.561 145.69c0.21267-7e-3 0.42524 0 0.63947 0 2.5237 2e-5 4.7277 0.44336 6.5012 1.2789 1.8928 0.88671 3.2463 2.204 3.9966 3.9433 0.73325 1.6882 0.92508 3.6044 0.53287 5.7018 0 1e-5 -0.15985 0.79933-0.15985 0.79933 1e-5 -3e-5 -6.2347 0-6.2347 0-2e-5 -3e-5 0.0533-0.74605 0.0533-0.74605 0.16118-1.4654-0.0205-2.6178-0.58618-3.4104-0.0737-0.0994-0.18053-0.23063-0.26644-0.31973-0.14068-0.14363-0.35198-0.3078-0.53287-0.42631-0.87238-0.5495-2.237-0.85262-3.9966-0.85262-2.3362 2e-5 -4.0819 0.40712-5.2755 1.2256-1.1596 0.80146-1.8928 1.6967-2.1315 2.771-0.23875 1.0913 0.15346 1.6647 0.42631 1.9717 8e-3 8e-3 0.0429 0.0438 0.0533 0.0533 0.34552 0.29445 1.5454 0.98476 5.2755 1.8651 3.3763 0.81851 5.6123 1.5539 6.8742 2.1848 1.9099 0.97196 3.2442 2.2317 3.9433 3.7835 0.69911 1.5347 0.8526 3.3316 0.4263 5.2755-0.4263 1.8928-1.3919 3.6385-2.8243 5.2755-1.4153 1.637-3.2165 2.933-5.3821 3.8367-2.1486 0.88672-4.506 1.3855-6.9275 1.3855-3.0694-1e-5 -5.5334-0.46467-7.4603-1.3855-2.0122-0.95491-3.4637-2.4619-4.3163-4.4229-0.81851-1.9099-0.9933-4.0776-0.53289-6.4479 0-3e-5 0.15987-0.74605 0.15987-0.74605h6.1281s-0.0533 0.74605-0.0533 0.74605c-0.15348 1.4153-2e-3 2.5578 0.37302 3.4104 0.35809 0.81853 1.0402 1.4963 2.1315 2.025 1.1595 0.5627 2.609 0.8526 4.263 0.8526 1.4836-1e-5 2.8392-0.24939 4.0499-0.69273 1.1936-0.4263 2.1422-0.98904 2.8243-1.7052 0.66502-0.71622 1.0551-1.4729 1.2256-2.2914 0.17052-0.73324 0.13002-1.3535-0.15987-1.8651-0.32399-0.54564-0.96558-1.0295-1.9716-1.4388 0-1e-5 -5.2223-1.5454-5.2223-1.5454-2.9159-0.73323-4.879-1.4324-6.0216-2.1315-1.5518-0.92081-2.6708-2.1017-3.2506-3.517-0.57977-1.3983-0.64158-2.9479-0.26643-4.6361 0.3922-1.8075 1.264-3.5277 2.6111-5.0624 1.3642-1.5518 3.1248-2.7688 5.2222-3.5703 1.8544-0.6954 3.806-1.1032 5.8617-1.1723zm55.953 0.10658c0.33725-0.0263 0.65436 0 1.0125 0 1e-5 0 3.8368 0.4263 3.8368 0.4263-1e-5 0 1.2789 0.10658 1.2789 0.10658 2e-5 1e-5 -1.8651 4.7426-1.8651 4.7426l-0.37302 0.74604c0-2e-5 -2.9308-0.26644-2.9308-0.26644-0.86541 0-1.5011 0.13352-1.9184 0.4263-0.0277 0.0209-0.081 0.0842-0.10658 0.10658-0.0559 0.049-0.14991 0.13458-0.21315 0.21316-0.25659 0.33651-0.56912 0.93786-0.79932 2.025-2e-5 0-0.11084 0.4604-0.21315 0.85261 1.3471 1e-5 4.5828 0 4.5828 0 0 1e-5 -1.1723 5.2755-1.1723 5.2755 0-1e-5 -3.3508 0-4.4762 0-0.34106 1.5347-4.5295 20.303-4.5295 20.303-2e-5 -2e-5 -6.1814 0-6.1814 0-2e-5 -2e-5 4.0179-18.035 4.5295-20.303-1.0402-1e-5 -3.5703 0-3.5703 0 0-1e-5 1.1723-5.2755 1.1723-5.2755 1e-5 1e-5 2.545 0 3.517 0 0.17052-0.73324 0.4263-1.6519 0.4263-1.6519 0.37516-1.7052 0.76735-2.9308 1.2789-3.7835 0.69917-1.1766 1.6861-2.1614 2.9309-2.8776 1.0253-0.59575 2.322-0.95194 3.7835-1.0658zm14.761 0.26644c-2e-5 -1e-5 -1.6157 7.2706-2.025 9.1123 1.1936 1e-5 3.9966 0 3.9966 0 0 1e-5 -1.1723 5.2755-1.1723 5.2755-2e-5 -1e-5 -2.9394 0-3.9966 0-0.32401 1.4665-2.8776 12.842-2.8776 12.842 2e-5 -2e-5 -0.21316 1.3663-0.21316 1.7585 2.8e-4 0.0131-1e-3 0.0437 0 0.0533 8.4e-4 4e-3 -1e-3 0.05 0 0.0533 2e-3 3e-3 0.0512-2e-3 0.0533 0 0-2e-5 0.63947 0.0533 0.63947 0.0533l2.9308-0.21315-0.31973 4.7426c2e-5 0 0.0533 0.85261 0.0533 0.85261-2e-5 -2e-5 -4.2098 0.4796-4.2098 0.4796-1.6711-2e-5 -2.8968-0.27283-3.7835-0.8526-0.93785-0.61392-1.4835-1.4281-1.7052-2.4513-0.0341-0.18759-0.10658-0.46042-0.10658-0.85261 0-0.76736 0.14495-2.0654 0.63946-4.3163 2e-5 2e-5 2.2402-10.035 2.7177-12.15-0.80143-1e-5 -2.9308 0-2.9308 0 2e-5 -1e-5 1.1723-5.2755 1.1723-5.2755-2e-5 1e-5 2.0782 0 2.9309 0 0.27281-1.2278 1.2256-5.4354 1.2256-5.4354 0 2e-5 4.9558-2.6111 4.9558-2.6111-1e-5 2e-5 2.025-1.0658 2.025-1.0658zm-196.37 0.21315h23.98l-1.3322 5.9683c0 2e-5 -15.997 0-17.532 0-0.27282 1.2107-1.3663 6.1132-1.7585 7.8866h15.187l-1.3322 5.9683h-15.187c-0.32399 1.4836-3.2506 14.654-3.2506 14.654 2e-5 -2e-5 -6.4479 0-6.4479 0 1e-5 -2e-5 7.6735-34.477 7.6735-34.477zm32.133 8.4195c0.24067-0.0296 0.50358 0 0.74604 0 1.5347 0 2.9522 0.4668 4.3164 1.4388 0 2e-5 0.8526 0.58617 0.8526 0.58617l-3.3039 5.4354c0-2e-5 -0.90589-0.63946-0.90589-0.63946-0.66504-0.42629-1.3812-0.63946-2.1315-0.63946-0.64799 2e-5 -1.2512 0.2302-1.8651 0.63946-0.64797 0.4263-1.1894 0.99115-1.5986 1.7585-0.7162 1.313-1.2406 2.7838-1.5986 4.3696 0 1e-5 -2.8776 13.109-2.8776 13.109 0-2e-5 -6.1814 0-6.1814 0 0-2e-5 5.7018-25.578 5.7018-25.578 2e-5 1e-5 5.7551 0 5.7551 0 0 1e-5 -0.19824 0.77588-0.26645 1.0658 0.27284-0.20461 0.56059-0.48599 0.79933-0.63946 0.82597-0.4929 1.6984-0.80035 2.5578-0.90589zm18.331 0c0.37219-0.0282 0.73859 0 1.1191 0 3.4787 0 6.1111 1.2192 7.8334 3.6236 1.0743 1.5517 1.652 3.4701 1.652 5.7551 0 1.2618-0.15561 2.6196-0.47959 4.1032l-0.47961 1.8651c0-2e-5 -15.633 0-17.372 0-0.0341 0.35808-0.0533 0.74177-0.0533 1.0658 0 1.3301 0.27283 2.3766 0.85261 3.144 0.2755 0.37513 0.5949 0.71299 0.95919 0.95918 0.68678 0.44789 1.5733 0.69275 2.6111 0.69275 1.2619-2e-5 2.3702-0.34745 3.4104-1.0125 0.98905-0.63093 1.9354-1.6391 2.771-3.0374 0-3e-5 6.6077 0 6.6077 0 0-3e-5 -0.58616 1.2789-0.58616 1.2789-1.2619 2.5578-3.0225 4.5529-5.2222 5.9683-2.1997 1.4153-4.8279 2.1848-7.7268 2.1848-3.7685-1e-5 -6.5736-1.2192-8.313-3.6236-1.7223-2.3532-2.0932-5.6059-1.1723-9.6985 0.92083-4.1607 2.7582-7.4859 5.4354-9.805 2.3996-2.0806 5.1224-3.2347 8.1531-3.4637zm27.763 0c0.37218-0.0282 0.73857 0 1.119 0 3.4787 0 6.1111 1.2192 7.8334 3.6236 1.0743 1.5517 1.6519 3.4701 1.6519 5.7551 0 1.2448-0.1556 2.5834-0.4796 4.0499 0 2e-5 -0.47958 1.9184-0.47958 1.9184 0-2e-5 -15.633 0-17.372 0-0.0171 0.2387-0.0362 0.45402-0.0533 0.69275-0.0128 0.0895 6e-3 0.22541 0 0.31972-5e-4 0.0154 0 0.0384 0 0.0533 0 0.2558 0.0362 0.5073 0.0533 0.74604 0.0852 0.97196 0.33892 1.7841 0.79932 2.398 0.0877 0.11936 0.17008 0.2667 0.26644 0.37302 0.78101 0.83554 1.8864 1.2789 3.3039 1.2789 1.2619-2e-5 2.3873-0.34745 3.4104-1.0125 0.98904-0.63093 1.9354-1.6391 2.771-3.0374 0-3e-5 6.661 0 6.661 0-1e-5 -3e-5 -0.63946 1.2789-0.63946 1.2789-1.2619 2.5578-3.0225 4.5529-5.2222 5.9683-2.1997 1.4153-4.8279 2.1848-7.7268 2.1848-3.7685-1e-5 -6.5736-1.2192-8.313-3.6236-1.1254-1.5347-1.6519-3.4893-1.6519-5.8084 0-0.35812 0.0192-0.74391 0.0533-1.119 0.0682-0.88671 0.20463-1.782 0.42631-2.771 0.92084-4.1437 2.7049-7.4859 5.3821-9.805 2.3996-2.0806 5.1758-3.2347 8.2064-3.4637zm75.616 0c0.38084-0.0293 0.73112 0 1.119 0 3.5469 0 6.2731 1.2 8.0465 3.5703 1.7564 2.3702 2.1827 5.5675 1.2789 9.5919-0.69913 3.1376-1.7095 5.672-3.0907 7.5136-1.3813 1.8416-3.1419 3.3465-5.2223 4.3696-2.0633 1.0231-4.2481 1.5454-6.4479 1.5454-3.6151-1e-5 -6.3072-1.2363-8.0465-3.6236-1.1255-1.5176-1.7052-3.4723-1.7052-5.8084 2e-5 -1.2619 0.13856-2.6026 0.4796-4.1032 1.0232-4.57 3.112-8.0508 6.1814-10.285 2.253-1.6263 4.7411-2.5661 7.407-2.771zm93.627 0c0.4496-0.0277 0.86593 0 1.3322 0 2.1486 0 3.8368 0.2174 5.1157 0.74602 1.3642 0.54569 2.3319 1.3173 2.8776 2.2381 0.52864 0.86963 0.79933 1.9376 0.79933 3.2506 1e-5 2e-5 -0.63948 3.89-0.63948 3.89 3e-5 0-1.1723 5.2755-1.1723 5.2755-1.0061 4.5018-1.2278 6.19-1.2789 6.8209-0.0512 0.85262 0.0277 1.6839 0.26645 2.4512 2e-5 -2e-5 0.4263 1.3855 0.4263 1.3855 2e-5 -2e-5 -6.288 0-6.288 0-2e-5 -2e-5 -0.26645-0.79933-0.26645-0.79933-0.10231-0.37512-0.0725-0.8526-0.10657-1.2789-1.1936 0.73325-2.3894 1.3834-3.4637 1.7585-1.5858 0.54569-3.2314 0.8526-4.9025 0.8526-2.8989-1e-5 -5.0453-0.75454-6.3413-2.2381-0.98902-1.0913-1.4388-2.4257-1.4388-3.9433-2e-5 -0.57977 0.0767-1.1809 0.21314-1.8118 0.28988-1.296 0.81638-2.496 1.6519-3.5703 0.81851-1.0573 1.7862-1.9269 2.8776-2.5578 1.0573-0.63092 2.236-1.0786 3.4637-1.3855-2e-5 0 3.7835-0.63946 3.7835-0.63946 2.9159-0.34106 5.0922-0.76521 6.661-1.2256 0.0341-0.17052 0.10657-0.37302 0.10657-0.37302 0.24726-1.0972 0.21632-1.9219-0.0533-2.3447-0.0198-0.0273-0.0842-0.0831-0.10657-0.10658-0.0576-0.0614-0.14603-0.15779-0.21316-0.21315-0.64135-0.50753-1.7351-0.74603-3.1973-0.74603-1.6541 0-2.8776 0.27071-3.7302 0.79931-0.83555 0.52863-1.6093 1.4963-2.2914 2.8776-1e-5 -1e-5 -6.4479 0-6.4479 0 2e-5 -1e-5 0.58617-1.2789 0.58617-1.2789 0.76733-1.7734 1.6818-3.2442 2.8243-4.3696 1.1425-1.1255 2.6857-1.9972 4.4762-2.6111 1.3722-0.45297 2.8705-0.75354 4.4762-0.85261zm27.017 0c0.24046-0.0296 0.50356 0 0.74603 0 1.5517 0 3.0054 0.4668 4.3696 1.4388 2e-5 2e-5 0.79932 0.58617 0.79932 0.58617 1e-5 0-3.3039 5.4354-3.3039 5.4354 1e-5 -2e-5 -0.9059-0.63946-0.9059-0.63946-0.66503-0.42629-1.345-0.63946-2.0782-0.63946-0.64801 2e-5 -1.2874 0.2302-1.9184 0.63946-0.64797 0.4263-1.119 0.99115-1.5453 1.7585-0.69916 1.313-1.2406 2.7838-1.5986 4.3696-2e-5 1e-5 -2.9308 13.109-2.9308 13.109 2e-5 -2e-5 -6.1814 0-6.1814 0 0-2e-5 5.7018-25.578 5.7018-25.578-1e-5 1e-5 5.7551 0 5.7551 0 0 1e-5 -0.14494 0.77588-0.21314 1.0658 0.27282-0.20461 0.54353-0.48599 0.79932-0.63946 0.81263-0.4929 1.6457-0.80035 2.5046-0.90589zm18.278 0c0.37185-0.0282 0.73859 0 1.1191 0 3.4787 0 6.1281 1.2192 7.8334 3.6236 1.0914 1.5517 1.6519 3.4701 1.6519 5.7551-2e-5 1.2618-0.2089 2.6196-0.53289 4.1032l-0.4263 1.8651c-1e-5 -2e-5 -15.65 0-17.372 0-0.0341 0.35808-0.10659 0.74177-0.10659 1.0658 0 1.3301 0.28989 2.3766 0.85262 3.144 0.0877 0.11936 0.223 0.2667 0.31972 0.37302 0.056 0.0597 0.15412 0.15773 0.21316 0.21314 0.76235 0.69302 1.7998 1.0658 3.0907 1.0658 1.2619-2e-5 2.3703-0.34745 3.4104-1.0125 0.98905-0.63093 1.9184-1.6391 2.771-3.0374-2e-5 -3e-5 6.661 0 6.661 0 0-3e-5 -0.63946 1.2789-0.63946 1.2789-1.2619 2.5578-3.0396 4.5529-5.2222 5.9683-2.2168 1.4153-4.8108 2.1848-7.7268 2.1848-3.7685-1e-5 -6.5203-1.2192-8.2597-3.6236-1.7223-2.3532-2.1294-5.6059-1.2256-9.6985 0.92081-4.1607 2.7049-7.4859 5.3821-9.805 2.4148-2.0806 5.1785-3.2347 8.2064-3.4637zm-93.308 0.47959c2e-5 1e-5 6.3413 0 6.3413 0 2e-5 1e-5 0.78226 15.179 0.79931 15.4 0.25578-0.54356 0.45424-1.0009 0.47961-1.0658 1e-5 1e-5 6.9807-14.335 6.9807-14.335 2e-5 1e-5 5.8084 0 5.8084 0-1e-5 1e-5 0.53288 14.995 0.53288 15.081 0.17055-0.30691 7.9399-15.081 7.9399-15.081-2e-5 1e-5 6.288 0 6.288 0-1e-5 1e-5 -13.855 25.578-13.855 25.578 2e-5 -2e-5 -5.7018 0-5.7018 0 0-2e-5 -0.55206-13.87-0.58617-14.654-2.3532 4.8258-7.1406 14.654-7.1406 14.654 0-2e-5 -5.8617 0-5.8617 0 0-2e-5 -2.025-25.578-2.025-25.578zm-148.89 4.8492c-1.4689 0.062-2.803 0.59149-4.0499 1.5986-0.98902 0.78441-1.6562 1.8608-2.1848 3.0374 0 2e-5 10.498 0 10.498 0 0.0171-0.18756 0.0533-0.41564 0.0533-0.58617-2e-5 -0.97195-0.17266-1.7265-0.47959-2.2381-0.75028-1.2278-1.863-1.8118-3.517-1.8118-0.0991 0-0.2218-4e-3 -0.31973 0zm27.763 0c-1.4689 0.062-2.803 0.59149-4.0499 1.5986-0.98904 0.78441-1.6391 1.8608-2.1848 3.0374 0 2e-5 10.498 0 10.498 0 0.017-0.18756 0.0533-0.41564 0.0533-0.58617-1e-5 -0.97195-0.1556-1.7265-0.4796-2.2381-0.14894-0.24939-0.35043-0.49739-0.53288-0.69274-0.71199-0.73572-1.6919-1.1191-2.9841-1.1191-0.0991 0-0.2218-4e-3 -0.31974 0zm214.75 0c-1.5106 0.0465-2.9212 0.55794-4.2098 1.5986-0.97198 0.78441-1.6392 1.8608-2.1848 3.0374 2e-5 2e-5 10.444 0 10.444 0 0.017-0.18756 0.0533-0.41564 0.0533-0.58617-1e-5 -0.97195-0.1556-1.7265-0.4796-2.2381-0.73324-1.2107-1.863-1.7947-3.517-1.8118-0.049 5.3e-4 -0.0578-1e-3 -0.10657 0zm-139.62 0.10658c-1.4096 0.16739-2.7204 0.81051-3.9433 1.9184-1.4665 1.3301-2.5301 3.419-3.144 6.1814-0.25579 1.1596-0.37303 2.1507-0.37303 3.0374 2e-5 1.2107 0.23233 2.1614 0.69275 2.8776 0.12257 0.18384 0.28516 0.37811 0.42631 0.53289 0.75804 0.80488 1.8166 1.2256 3.144 1.2256 1.7223-2e-5 3.2399-0.64159 4.6894-1.9717 1.4665-1.3471 2.5131-3.4573 3.144-6.288 0.5798-2.592 0.49878-4.5274-0.31972-5.7551-0.7844-1.1937-1.9312-1.7585-3.517-1.7585-0.26911 0-0.5383-0.031-0.79933 0zm96.292 9.3254c-1.4494 0.39218-3.0737 0.72258-5.2222 1.0125-1.6029 0.23874-2.7454 0.49024-3.4104 0.74603-0.57976 0.23872-1.0466 0.56911-1.4388 1.0125-0.37516 0.42627-0.62666 0.87392-0.74602 1.3855-0.0341 0.20464-0.0533 0.41564-0.0533 0.58617 0 0.0138-3.1e-4 0.0396 0 0.0533 2e-3 0.0406-4e-3 0.1207 0 0.15985 0.0107 0.0774 0.0322 0.1944 0.0533 0.26645 8e-3 0.0237 0.0445 0.0834 0.0533 0.10657 0.0187 0.0458 0.0301 0.11611 0.0533 0.15987 0.0243 0.0433 0.0779 0.11849 0.10658 0.15986 0.0446 0.0614 0.1055 0.1556 0.15987 0.21315 0.42631 0.47746 1.2768 0.69275 2.5045 0.69275 1.3472 1e-5 2.6431-0.25578 3.8368-0.85261 1.1766-0.57977 2.1251-1.4452 2.8243-2.4513 0.51159-0.7162 0.92083-1.8182 1.2789-3.2506z"/>
    <path d="m373.6 223.7h-0.0512c1.6541 0.017 2.7454 0.57978 3.4786 1.7905 0.324 0.51157 0.49452 1.2789 0.49452 2.2509 0 0.17052-0.0341 0.3922-0.0512 0.57977h0.0682c0-0.18757 0.0341-0.40925 0.0341-0.57977 0-0.97198-0.15347-1.7393-0.47746-2.2509-0.73324-1.2278-1.8416-1.7905-3.4957-1.7905z"/>
   </g>
   <path d="m417.08 250.21c0.69221 1.7796 1.3844 3.5563 2.1055 5.2941 1.1105 2.3608 2.394 4.6206 3.937 6.7304 8.3356 11.331 22.295 17.535 40.019 19.079h19.065c6.0281-0.47014 12.345-1.347 18.892-2.6276 11.292-2.2079 23.262-5.5998 35.693-10.132 9.4172-3.4338 19.094-7.4962 28.915-12.218 21.387-10.252 43.48-23.475 65.156-39.432 7.1386-5.2508 13.989-10.639 20.565-16.117 6.0281-5.0158 11.811-10.109 17.334-15.259 15.416-14.857 27.054-29.946 33.645-43.195 6.8645-13.797 8.2346-25.594 2.6103-33.025-3.4467-4.5615-9.2153-7.0059-16.642-7.5813 33.458-25.105 52.955-55.558 45.961-74.759-2.221-6.1277-7.1098-10.699-14.119-13.227-3.115-1.1205-6.6194-1.8301-10.441-2.1531h-10.297c-14.378 1.0369-35.287 6.1853-53.025 14.878" fill-opacity="0" stroke="#bd0000" stroke-width="8.5261"/>
  </g>
 </g>
</svg>
