solid OpenSCAD_Model
  facet normal 0 0 -1
    outer loop
      vertex -15 -60 0
      vertex -14.6722 -56.8813 0
      vertex -14.6722 -63.1187 0
    endloop
  endfacet
  facet normal 0 0 -1
    outer loop
      vertex -14.6722 -63.1187 0
      vertex -14.6722 -56.8813 0
      vertex -13.7032 -53.8989 0
    endloop
  endfacet
  facet normal 0 0 -1
    outer loop
      vertex -14.6722 -63.1187 0
      vertex -13.7032 -53.8989 0
      vertex -12.1353 -51.1832 0
    endloop
  endfacet
  facet normal 0 0 -1
    outer loop
      vertex -14.6722 -63.1187 0
      vertex -12.1353 -51.1832 0
      vertex -10.037 -48.8528 0
    endloop
  endfacet
  facet normal 0 0 -1
    outer loop
      vertex -14.6722 -63.1187 0
      vertex -10.037 -48.8528 0
      vertex -7.5 -47.0096 0
    endloop
  endfacet
  facet normal 0 0 -1
    outer loop
      vertex -7.5 47.0096 0
      vertex -10.037 48.8528 0
      vertex -12.1353 51.1832 0
    endloop
  endfacet
  facet normal 0 0 -1
    outer loop
      vertex -7.5 47.0096 0
      vertex -12.1353 51.1832 0
      vertex -13.7032 53.8989 0
    endloop
  endfacet
  facet normal 0 0 -1
    outer loop
      vertex -7.5 47.0096 0
      vertex -13.7032 53.8989 0
      vertex -14.6722 56.8813 0
    endloop
  endfacet
  facet normal 0 0 -1
    outer loop
      vertex -7.5 47.0096 0
      vertex -14.6722 56.8813 0
      vertex -15 60 0
    endloop
  endfacet
  facet normal 0 0 -1
    outer loop
      vertex -7.5 47.0096 0
      vertex -15 60 0
      vertex -14.6722 63.1187 0
    endloop
  endfacet
  facet normal 0 0 -1
    outer loop
      vertex -7.5 47.0096 0
      vertex -14.6722 63.1187 0
      vertex -13.7032 66.101 0
    endloop
  endfacet
  facet normal 0 0 -1
    outer loop
      vertex -7.5 47.0096 0
      vertex -13.7032 66.101 0
      vertex -12.1353 68.8168 0
    endloop
  endfacet
  facet normal 0 0 -1
    outer loop
      vertex -7.5 47.0096 0
      vertex -12.1353 68.8168 0
      vertex -10.037 71.1472 0
    endloop
  endfacet
  facet normal 0 0 -1
    outer loop
      vertex -7.5 47.0096 0
      vertex -10.037 71.1472 0
      vertex -7.5 72.9904 0
    endloop
  endfacet
  facet normal 0 0 -1
    outer loop
      vertex -7.5 47.0096 0
      vertex -7.5 72.9904 0
      vertex -4.63525 74.2658 0
    endloop
  endfacet
  facet normal 0 0 -1
    outer loop
      vertex -7.5 47.0096 0
      vertex -4.63525 74.2658 0
      vertex -7.5 -47.0096 0
    endloop
  endfacet
  facet normal 0 0 -1
    outer loop
      vertex -7.5 -47.0096 0
      vertex -4.63525 74.2658 0
      vertex -1.56793 74.9178 0
    endloop
  endfacet
  facet normal 0 0 -1
    outer loop
      vertex -7.5 -47.0096 0
      vertex -1.56793 74.9178 0
      vertex 1.56793 74.9178 0
    endloop
  endfacet
  facet normal 0 0 -1
    outer loop
      vertex -7.5 -47.0096 0
      vertex 1.56793 74.9178 0
      vertex 4.63525 74.2658 0
    endloop
  endfacet
  facet normal 0 0 -1
    outer loop
      vertex -7.5 -47.0096 0
      vertex 4.63525 74.2658 0
      vertex 7.5 72.9904 0
    endloop
  endfacet
  facet normal 0 0 -1
    outer loop
      vertex -7.5 -47.0096 0
      vertex 7.5 72.9904 0
      vertex 10.037 71.1472 0
    endloop
  endfacet
  facet normal 0 0 -1
    outer loop
      vertex 7.5 47.0096 0
      vertex 10.037 71.1472 0
      vertex 12.1353 68.8168 0
    endloop
  endfacet
  facet normal 0 0 -1
    outer loop
      vertex 10.037 48.8528 0
      vertex 12.1353 68.8168 0
      vertex 13.7032 66.101 0
    endloop
  endfacet
  facet normal 0 0 -1
    outer loop
      vertex 12.1353 51.1832 0
      vertex 13.7032 66.101 0
      vertex 14.6722 63.1187 0
    endloop
  endfacet
  facet normal 0 0 -1
    outer loop
      vertex 13.7032 53.8989 0
      vertex 14.6722 63.1187 0
      vertex 15 60 0
    endloop
  endfacet
  facet normal 0 0 -1
    outer loop
      vertex 12.1353 51.1832 0
      vertex 14.6722 63.1187 0
      vertex 13.7032 53.8989 0
    endloop
  endfacet
  facet normal 0 0 -1
    outer loop
      vertex 10.037 48.8528 0
      vertex 13.7032 66.101 0
      vertex 12.1353 51.1832 0
    endloop
  endfacet
  facet normal 0 0 -1
    outer loop
      vertex 7.5 47.0096 0
      vertex 12.1353 68.8168 0
      vertex 10.037 48.8528 0
    endloop
  endfacet
  facet normal 0 0 -1
    outer loop
      vertex -7.5 -47.0096 0
      vertex 10.037 71.1472 0
      vertex 7.5 47.0096 0
    endloop
  endfacet
  facet normal 0 0 -1
    outer loop
      vertex 7.5 -47.0096 0
      vertex -7.5 -47.0096 0
      vertex 7.5 47.0096 0
    endloop
  endfacet
  facet normal 0 0 -1
    outer loop
      vertex -7.5 -47.0096 0
      vertex 7.5 -47.0096 0
      vertex -14.6722 -63.1187 0
    endloop
  endfacet
  facet normal 0 0 -1
    outer loop
      vertex 7.5 -47.0096 0
      vertex 10.037 -48.8528 0
      vertex -14.6722 -63.1187 0
    endloop
  endfacet
  facet normal 0 0 -1
    outer loop
      vertex -14.6722 -63.1187 0
      vertex 10.037 -48.8528 0
      vertex 12.1353 -51.1832 0
    endloop
  endfacet
  facet normal 0 0 -1
    outer loop
      vertex -14.6722 -63.1187 0
      vertex 12.1353 -51.1832 0
      vertex 13.7032 -53.8989 0
    endloop
  endfacet
  facet normal 0 0 -1
    outer loop
      vertex -14.6722 -63.1187 0
      vertex 13.7032 -53.8989 0
      vertex 14.6722 -56.8813 0
    endloop
  endfacet
  facet normal 0 0 -1
    outer loop
      vertex -14.6722 -63.1187 0
      vertex 14.6722 -56.8813 0
      vertex 15 -60 0
    endloop
  endfacet
  facet normal 0 0 -1
    outer loop
      vertex -14.6722 -63.1187 0
      vertex 15 -60 0
      vertex 14.6722 -63.1187 0
    endloop
  endfacet
  facet normal 0 0 -1
    outer loop
      vertex -14.6722 -63.1187 0
      vertex 14.6722 -63.1187 0
      vertex 13.7032 -66.101 0
    endloop
  endfacet
  facet normal 0 0 -1
    outer loop
      vertex -14.6722 -63.1187 0
      vertex 13.7032 -66.101 0
      vertex 12.1353 -68.8168 0
    endloop
  endfacet
  facet normal 0 0 -1
    outer loop
      vertex -14.6722 -63.1187 0
      vertex 12.1353 -68.8168 0
      vertex 10.037 -71.1472 0
    endloop
  endfacet
  facet normal 0 0 -1
    outer loop
      vertex -14.6722 -63.1187 0
      vertex 10.037 -71.1472 0
      vertex 7.5 -72.9904 0
    endloop
  endfacet
  facet normal 0 0 -1
    outer loop
      vertex -14.6722 -63.1187 0
      vertex 7.5 -72.9904 0
      vertex 4.63525 -74.2658 0
    endloop
  endfacet
  facet normal 0 0 -1
    outer loop
      vertex -14.6722 -63.1187 0
      vertex 4.63525 -74.2658 0
      vertex 1.56793 -74.9178 0
    endloop
  endfacet
  facet normal 0 0 -1
    outer loop
      vertex -14.6722 -63.1187 0
      vertex 1.56793 -74.9178 0
      vertex -1.56793 -74.9178 0
    endloop
  endfacet
  facet normal 0 0 -1
    outer loop
      vertex -14.6722 -63.1187 0
      vertex -1.56793 -74.9178 0
      vertex -4.63525 -74.2658 0
    endloop
  endfacet
  facet normal 0 0 -1
    outer loop
      vertex -14.6722 -63.1187 0
      vertex -4.63525 -74.2658 0
      vertex -7.5 -72.9904 0
    endloop
  endfacet
  facet normal 0 0 -1
    outer loop
      vertex -14.6722 -63.1187 0
      vertex -7.5 -72.9904 0
      vertex -10.037 -71.1472 0
    endloop
  endfacet
  facet normal 0 0 -1
    outer loop
      vertex -14.6722 -63.1187 0
      vertex -10.037 -71.1472 0
      vertex -12.1353 -68.8168 0
    endloop
  endfacet
  facet normal 0 0 -1
    outer loop
      vertex -14.6722 -63.1187 0
      vertex -12.1353 -68.8168 0
      vertex -13.7032 -66.101 0
    endloop
  endfacet
  facet normal 0 0 -1
    outer loop
      vertex 13.7032 53.8989 0
      vertex 15 60 0
      vertex 14.6722 56.8813 0
    endloop
  endfacet
  facet normal -0.994522 0.104528 0
    outer loop
      vertex -15 -60 0
      vertex -15 -60 10
      vertex -14.6722 -56.8813 0
    endloop
  endfacet
  facet normal -0.994522 0.104528 0
    outer loop
      vertex -14.6722 -56.8813 0
      vertex -15 -60 10
      vertex -14.6722 -56.8813 10
    endloop
  endfacet
  facet normal -0.994522 -0.104528 0
    outer loop
      vertex -15 -60 0
      vertex -14.6722 -63.1187 0
      vertex -15 -60 10
    endloop
  endfacet
  facet normal -0.994522 -0.104528 0
    outer loop
      vertex -15 -60 10
      vertex -14.6722 -63.1187 0
      vertex -14.6722 -63.1187 10
    endloop
  endfacet
  facet normal -0.951057 -0.309017 0
    outer loop
      vertex -14.6722 -63.1187 0
      vertex -13.7032 -66.101 0
      vertex -14.6722 -63.1187 10
    endloop
  endfacet
  facet normal -0.951057 -0.309017 0
    outer loop
      vertex -14.6722 -63.1187 10
      vertex -13.7032 -66.101 0
      vertex -13.7032 -66.101 10
    endloop
  endfacet
  facet normal -0.866025 -0.5 0
    outer loop
      vertex -13.7032 -66.101 0
      vertex -12.1353 -68.8168 0
      vertex -13.7032 -66.101 10
    endloop
  endfacet
  facet normal -0.866025 -0.5 0
    outer loop
      vertex -13.7032 -66.101 10
      vertex -12.1353 -68.8168 0
      vertex -12.1353 -68.8168 10
    endloop
  endfacet
  facet normal -0.743145 -0.669131 0
    outer loop
      vertex -12.1353 -68.8168 0
      vertex -10.037 -71.1472 0
      vertex -12.1353 -68.8168 10
    endloop
  endfacet
  facet normal -0.743145 -0.669131 0
    outer loop
      vertex -12.1353 -68.8168 10
      vertex -10.037 -71.1472 0
      vertex -10.037 -71.1472 10
    endloop
  endfacet
  facet normal -0.587785 -0.809017 0
    outer loop
      vertex -10.037 -71.1472 10
      vertex -10.037 -71.1472 0
      vertex -7.5 -72.9904 0
    endloop
  endfacet
  facet normal -0.587785 -0.809017 0
    outer loop
      vertex -7.5 -72.9904 10
      vertex -10.037 -71.1472 10
      vertex -7.5 -72.9904 0
    endloop
  endfacet
  facet normal -0.406737 -0.913545 0
    outer loop
      vertex -7.5 -72.9904 10
      vertex -7.5 -72.9904 0
      vertex -4.63525 -74.2658 0
    endloop
  endfacet
  facet normal -0.406737 -0.913545 0
    outer loop
      vertex -4.63525 -74.2658 10
      vertex -7.5 -72.9904 10
      vertex -4.63525 -74.2658 0
    endloop
  endfacet
  facet normal -0.207911 -0.978148 0
    outer loop
      vertex -4.63525 -74.2658 10
      vertex -4.63525 -74.2658 0
      vertex -1.56793 -74.9178 0
    endloop
  endfacet
  facet normal -0.207911 -0.978148 0
    outer loop
      vertex -1.56793 -74.9178 10
      vertex -4.63525 -74.2658 10
      vertex -1.56793 -74.9178 0
    endloop
  endfacet
  facet normal 0 -1 0
    outer loop
      vertex -1.56793 -74.9178 10
      vertex -1.56793 -74.9178 0
      vertex 1.56793 -74.9178 0
    endloop
  endfacet
  facet normal 0 -1 0
    outer loop
      vertex 1.56793 -74.9178 10
      vertex -1.56793 -74.9178 10
      vertex 1.56793 -74.9178 0
    endloop
  endfacet
  facet normal 0.207911 -0.978148 0
    outer loop
      vertex 1.56793 -74.9178 10
      vertex 1.56793 -74.9178 0
      vertex 4.63525 -74.2658 0
    endloop
  endfacet
  facet normal 0.207911 -0.978148 0
    outer loop
      vertex 4.63525 -74.2658 10
      vertex 1.56793 -74.9178 10
      vertex 4.63525 -74.2658 0
    endloop
  endfacet
  facet normal 0.406737 -0.913545 0
    outer loop
      vertex 4.63525 -74.2658 10
      vertex 4.63525 -74.2658 0
      vertex 7.5 -72.9904 0
    endloop
  endfacet
  facet normal 0.406737 -0.913545 0
    outer loop
      vertex 7.5 -72.9904 10
      vertex 4.63525 -74.2658 10
      vertex 7.5 -72.9904 0
    endloop
  endfacet
  facet normal 0.587785 -0.809017 0
    outer loop
      vertex 7.5 -72.9904 10
      vertex 7.5 -72.9904 0
      vertex 10.037 -71.1472 0
    endloop
  endfacet
  facet normal 0.587785 -0.809017 0
    outer loop
      vertex 10.037 -71.1472 10
      vertex 7.5 -72.9904 10
      vertex 10.037 -71.1472 0
    endloop
  endfacet
  facet normal 0.743145 -0.669131 0
    outer loop
      vertex 10.037 -71.1472 10
      vertex 10.037 -71.1472 0
      vertex 12.1353 -68.8168 0
    endloop
  endfacet
  facet normal 0.743145 -0.669131 0
    outer loop
      vertex 12.1353 -68.8168 10
      vertex 10.037 -71.1472 10
      vertex 12.1353 -68.8168 0
    endloop
  endfacet
  facet normal 0.866025 -0.5 0
    outer loop
      vertex 12.1353 -68.8168 10
      vertex 12.1353 -68.8168 0
      vertex 13.7032 -66.101 0
    endloop
  endfacet
  facet normal 0.866025 -0.5 0
    outer loop
      vertex 13.7032 -66.101 10
      vertex 12.1353 -68.8168 10
      vertex 13.7032 -66.101 0
    endloop
  endfacet
  facet normal 0.951057 -0.309017 0
    outer loop
      vertex 13.7032 -66.101 10
      vertex 13.7032 -66.101 0
      vertex 14.6722 -63.1187 0
    endloop
  endfacet
  facet normal 0.951057 -0.309017 0
    outer loop
      vertex 14.6722 -63.1187 10
      vertex 13.7032 -66.101 10
      vertex 14.6722 -63.1187 0
    endloop
  endfacet
  facet normal 0.994522 -0.104528 0
    outer loop
      vertex 14.6722 -63.1187 10
      vertex 14.6722 -63.1187 0
      vertex 15 -60 0
    endloop
  endfacet
  facet normal 0.994522 -0.104528 0
    outer loop
      vertex 15 -60 10
      vertex 14.6722 -63.1187 10
      vertex 15 -60 0
    endloop
  endfacet
  facet normal 0.994522 0.104528 0
    outer loop
      vertex 15 -60 0
      vertex 14.6722 -56.8813 0
      vertex 14.6722 -56.8813 10
    endloop
  endfacet
  facet normal 0.994522 0.104528 0
    outer loop
      vertex 15 -60 10
      vertex 15 -60 0
      vertex 14.6722 -56.8813 10
    endloop
  endfacet
  facet normal 0.951057 0.309017 0
    outer loop
      vertex 14.6722 -56.8813 0
      vertex 13.7032 -53.8989 0
      vertex 13.7032 -53.8989 10
    endloop
  endfacet
  facet normal 0.951057 0.309017 0
    outer loop
      vertex 14.6722 -56.8813 10
      vertex 14.6722 -56.8813 0
      vertex 13.7032 -53.8989 10
    endloop
  endfacet
  facet normal 0.866025 0.5 0
    outer loop
      vertex 13.7032 -53.8989 0
      vertex 12.1353 -51.1832 0
      vertex 12.1353 -51.1832 10
    endloop
  endfacet
  facet normal 0.866025 0.5 0
    outer loop
      vertex 13.7032 -53.8989 10
      vertex 13.7032 -53.8989 0
      vertex 12.1353 -51.1832 10
    endloop
  endfacet
  facet normal 0.743145 0.669131 0
    outer loop
      vertex 12.1353 -51.1832 0
      vertex 10.037 -48.8528 0
      vertex 10.037 -48.8528 10
    endloop
  endfacet
  facet normal 0.743145 0.669131 0
    outer loop
      vertex 12.1353 -51.1832 10
      vertex 12.1353 -51.1832 0
      vertex 10.037 -48.8528 10
    endloop
  endfacet
  facet normal 0.587785 0.809017 0
    outer loop
      vertex 7.5 -47.0096 0
      vertex 7.5 -47.0096 10
      vertex 10.037 -48.8528 0
    endloop
  endfacet
  facet normal 0.587785 0.809017 0
    outer loop
      vertex 10.037 -48.8528 0
      vertex 7.5 -47.0096 10
      vertex 10.037 -48.8528 10
    endloop
  endfacet
  facet normal 1 0 0
    outer loop
      vertex 7.5 -47.0096 10
      vertex 7.5 -47.0096 0
      vertex 7.5 47.0096 0
    endloop
  endfacet
  facet normal 1 0 0
    outer loop
      vertex 7.5 47.0096 10
      vertex 7.5 -47.0096 10
      vertex 7.5 47.0096 0
    endloop
  endfacet
  facet normal 0.587785 -0.809017 0
    outer loop
      vertex 7.5 47.0096 10
      vertex 7.5 47.0096 0
      vertex 10.037 48.8528 0
    endloop
  endfacet
  facet normal 0.587785 -0.809017 0
    outer loop
      vertex 10.037 48.8528 10
      vertex 7.5 47.0096 10
      vertex 10.037 48.8528 0
    endloop
  endfacet
  facet normal 0.743145 -0.669131 0
    outer loop
      vertex 10.037 48.8528 10
      vertex 10.037 48.8528 0
      vertex 12.1353 51.1832 0
    endloop
  endfacet
  facet normal 0.743145 -0.669131 0
    outer loop
      vertex 12.1353 51.1832 10
      vertex 10.037 48.8528 10
      vertex 12.1353 51.1832 0
    endloop
  endfacet
  facet normal 0.866025 -0.5 0
    outer loop
      vertex 12.1353 51.1832 10
      vertex 12.1353 51.1832 0
      vertex 13.7032 53.8989 0
    endloop
  endfacet
  facet normal 0.866025 -0.5 0
    outer loop
      vertex 13.7032 53.8989 10
      vertex 12.1353 51.1832 10
      vertex 13.7032 53.8989 0
    endloop
  endfacet
  facet normal 0.951057 -0.309017 0
    outer loop
      vertex 13.7032 53.8989 10
      vertex 13.7032 53.8989 0
      vertex 14.6722 56.8813 0
    endloop
  endfacet
  facet normal 0.951057 -0.309017 0
    outer loop
      vertex 14.6722 56.8813 10
      vertex 13.7032 53.8989 10
      vertex 14.6722 56.8813 0
    endloop
  endfacet
  facet normal 0.994522 -0.104528 0
    outer loop
      vertex 14.6722 56.8813 10
      vertex 14.6722 56.8813 0
      vertex 15 60 0
    endloop
  endfacet
  facet normal 0.994522 -0.104528 0
    outer loop
      vertex 15 60 10
      vertex 14.6722 56.8813 10
      vertex 15 60 0
    endloop
  endfacet
  facet normal 0.994522 0.104528 0
    outer loop
      vertex 15 60 0
      vertex 14.6722 63.1187 0
      vertex 14.6722 63.1187 10
    endloop
  endfacet
  facet normal 0.994522 0.104528 0
    outer loop
      vertex 15 60 10
      vertex 15 60 0
      vertex 14.6722 63.1187 10
    endloop
  endfacet
  facet normal 0.951057 0.309017 0
    outer loop
      vertex 14.6722 63.1187 0
      vertex 13.7032 66.101 0
      vertex 13.7032 66.101 10
    endloop
  endfacet
  facet normal 0.951057 0.309017 0
    outer loop
      vertex 14.6722 63.1187 10
      vertex 14.6722 63.1187 0
      vertex 13.7032 66.101 10
    endloop
  endfacet
  facet normal 0.866025 0.5 0
    outer loop
      vertex 13.7032 66.101 0
      vertex 12.1353 68.8168 0
      vertex 12.1353 68.8168 10
    endloop
  endfacet
  facet normal 0.866025 0.5 0
    outer loop
      vertex 13.7032 66.101 10
      vertex 13.7032 66.101 0
      vertex 12.1353 68.8168 10
    endloop
  endfacet
  facet normal 0.743145 0.669131 0
    outer loop
      vertex 12.1353 68.8168 0
      vertex 10.037 71.1472 0
      vertex 10.037 71.1472 10
    endloop
  endfacet
  facet normal 0.743145 0.669131 0
    outer loop
      vertex 12.1353 68.8168 10
      vertex 12.1353 68.8168 0
      vertex 10.037 71.1472 10
    endloop
  endfacet
  facet normal 0.587785 0.809017 0
    outer loop
      vertex 7.5 72.9904 0
      vertex 7.5 72.9904 10
      vertex 10.037 71.1472 0
    endloop
  endfacet
  facet normal 0.587785 0.809017 0
    outer loop
      vertex 10.037 71.1472 0
      vertex 7.5 72.9904 10
      vertex 10.037 71.1472 10
    endloop
  endfacet
  facet normal 0.406737 0.913545 0
    outer loop
      vertex 4.63525 74.2658 0
      vertex 4.63525 74.2658 10
      vertex 7.5 72.9904 0
    endloop
  endfacet
  facet normal 0.406737 0.913545 0
    outer loop
      vertex 7.5 72.9904 0
      vertex 4.63525 74.2658 10
      vertex 7.5 72.9904 10
    endloop
  endfacet
  facet normal 0.207911 0.978148 0
    outer loop
      vertex 1.56793 74.9178 0
      vertex 1.56793 74.9178 10
      vertex 4.63525 74.2658 0
    endloop
  endfacet
  facet normal 0.207911 0.978148 0
    outer loop
      vertex 4.63525 74.2658 0
      vertex 1.56793 74.9178 10
      vertex 4.63525 74.2658 10
    endloop
  endfacet
  facet normal 0 1 0
    outer loop
      vertex -1.56793 74.9178 0
      vertex -1.56793 74.9178 10
      vertex 1.56793 74.9178 0
    endloop
  endfacet
  facet normal 0 1 0
    outer loop
      vertex 1.56793 74.9178 0
      vertex -1.56793 74.9178 10
      vertex 1.56793 74.9178 10
    endloop
  endfacet
  facet normal -0.207911 0.978148 0
    outer loop
      vertex -4.63525 74.2658 0
      vertex -4.63525 74.2658 10
      vertex -1.56793 74.9178 0
    endloop
  endfacet
  facet normal -0.207911 0.978148 0
    outer loop
      vertex -1.56793 74.9178 0
      vertex -4.63525 74.2658 10
      vertex -1.56793 74.9178 10
    endloop
  endfacet
  facet normal -0.406737 0.913545 0
    outer loop
      vertex -7.5 72.9904 0
      vertex -7.5 72.9904 10
      vertex -4.63525 74.2658 0
    endloop
  endfacet
  facet normal -0.406737 0.913545 0
    outer loop
      vertex -4.63525 74.2658 0
      vertex -7.5 72.9904 10
      vertex -4.63525 74.2658 10
    endloop
  endfacet
  facet normal -0.587785 0.809017 0
    outer loop
      vertex -10.037 71.1472 0
      vertex -10.037 71.1472 10
      vertex -7.5 72.9904 0
    endloop
  endfacet
  facet normal -0.587785 0.809017 0
    outer loop
      vertex -7.5 72.9904 0
      vertex -10.037 71.1472 10
      vertex -7.5 72.9904 10
    endloop
  endfacet
  facet normal -0.743145 0.669131 0
    outer loop
      vertex -12.1353 68.8168 0
      vertex -12.1353 68.8168 10
      vertex -10.037 71.1472 0
    endloop
  endfacet
  facet normal -0.743145 0.669131 0
    outer loop
      vertex -10.037 71.1472 0
      vertex -12.1353 68.8168 10
      vertex -10.037 71.1472 10
    endloop
  endfacet
  facet normal -0.866025 0.5 0
    outer loop
      vertex -13.7032 66.101 0
      vertex -13.7032 66.101 10
      vertex -12.1353 68.8168 0
    endloop
  endfacet
  facet normal -0.866025 0.5 0
    outer loop
      vertex -12.1353 68.8168 0
      vertex -13.7032 66.101 10
      vertex -12.1353 68.8168 10
    endloop
  endfacet
  facet normal -0.951057 0.309017 0
    outer loop
      vertex -14.6722 63.1187 0
      vertex -14.6722 63.1187 10
      vertex -13.7032 66.101 0
    endloop
  endfacet
  facet normal -0.951057 0.309017 0
    outer loop
      vertex -13.7032 66.101 0
      vertex -14.6722 63.1187 10
      vertex -13.7032 66.101 10
    endloop
  endfacet
  facet normal -0.994522 0.104528 0
    outer loop
      vertex -15 60 0
      vertex -15 60 10
      vertex -14.6722 63.1187 0
    endloop
  endfacet
  facet normal -0.994522 0.104528 0
    outer loop
      vertex -14.6722 63.1187 0
      vertex -15 60 10
      vertex -14.6722 63.1187 10
    endloop
  endfacet
  facet normal -0.994522 -0.104528 0
    outer loop
      vertex -15 60 0
      vertex -14.6722 56.8813 0
      vertex -15 60 10
    endloop
  endfacet
  facet normal -0.994522 -0.104528 0
    outer loop
      vertex -15 60 10
      vertex -14.6722 56.8813 0
      vertex -14.6722 56.8813 10
    endloop
  endfacet
  facet normal -0.951057 -0.309017 0
    outer loop
      vertex -14.6722 56.8813 0
      vertex -13.7032 53.8989 0
      vertex -14.6722 56.8813 10
    endloop
  endfacet
  facet normal -0.951057 -0.309017 0
    outer loop
      vertex -14.6722 56.8813 10
      vertex -13.7032 53.8989 0
      vertex -13.7032 53.8989 10
    endloop
  endfacet
  facet normal -0.866025 -0.5 0
    outer loop
      vertex -13.7032 53.8989 0
      vertex -12.1353 51.1832 0
      vertex -13.7032 53.8989 10
    endloop
  endfacet
  facet normal -0.866025 -0.5 0
    outer loop
      vertex -13.7032 53.8989 10
      vertex -12.1353 51.1832 0
      vertex -12.1353 51.1832 10
    endloop
  endfacet
  facet normal -0.743145 -0.669131 0
    outer loop
      vertex -12.1353 51.1832 0
      vertex -10.037 48.8528 0
      vertex -12.1353 51.1832 10
    endloop
  endfacet
  facet normal -0.743145 -0.669131 0
    outer loop
      vertex -12.1353 51.1832 10
      vertex -10.037 48.8528 0
      vertex -10.037 48.8528 10
    endloop
  endfacet
  facet normal -0.587785 -0.809017 0
    outer loop
      vertex -10.037 48.8528 10
      vertex -10.037 48.8528 0
      vertex -7.5 47.0096 0
    endloop
  endfacet
  facet normal -0.587785 -0.809017 0
    outer loop
      vertex -7.5 47.0096 10
      vertex -10.037 48.8528 10
      vertex -7.5 47.0096 0
    endloop
  endfacet
  facet normal -1 0 0
    outer loop
      vertex -7.5 -47.0096 0
      vertex -7.5 -47.0096 10
      vertex -7.5 47.0096 0
    endloop
  endfacet
  facet normal -1 0 0
    outer loop
      vertex -7.5 47.0096 0
      vertex -7.5 -47.0096 10
      vertex -7.5 47.0096 10
    endloop
  endfacet
  facet normal -0.587785 0.809017 0
    outer loop
      vertex -10.037 -48.8528 0
      vertex -10.037 -48.8528 10
      vertex -7.5 -47.0096 0
    endloop
  endfacet
  facet normal -0.587785 0.809017 0
    outer loop
      vertex -7.5 -47.0096 0
      vertex -10.037 -48.8528 10
      vertex -7.5 -47.0096 10
    endloop
  endfacet
  facet normal -0.743145 0.669131 0
    outer loop
      vertex -12.1353 -51.1832 0
      vertex -12.1353 -51.1832 10
      vertex -10.037 -48.8528 0
    endloop
  endfacet
  facet normal -0.743145 0.669131 0
    outer loop
      vertex -10.037 -48.8528 0
      vertex -12.1353 -51.1832 10
      vertex -10.037 -48.8528 10
    endloop
  endfacet
  facet normal -0.866025 0.5 0
    outer loop
      vertex -13.7032 -53.8989 0
      vertex -13.7032 -53.8989 10
      vertex -12.1353 -51.1832 0
    endloop
  endfacet
  facet normal -0.866025 0.5 0
    outer loop
      vertex -12.1353 -51.1832 0
      vertex -13.7032 -53.8989 10
      vertex -12.1353 -51.1832 10
    endloop
  endfacet
  facet normal -0.951057 0.309017 0
    outer loop
      vertex -14.6722 -56.8813 0
      vertex -14.6722 -56.8813 10
      vertex -13.7032 -53.8989 0
    endloop
  endfacet
  facet normal -0.951057 0.309017 0
    outer loop
      vertex -13.7032 -53.8989 0
      vertex -14.6722 -56.8813 10
      vertex -13.7032 -53.8989 10
    endloop
  endfacet
  facet normal 0 0 1
    outer loop
      vertex -14.6722 -56.8813 10
      vertex -15 -60 10
      vertex -14.6722 -63.1187 10
    endloop
  endfacet
  facet normal 0 0 1
    outer loop
      vertex -12.1353 -68.8168 10
      vertex -14.6722 -56.8813 10
      vertex -13.7032 -66.101 10
    endloop
  endfacet
  facet normal 0 0 1
    outer loop
      vertex -13.7032 -66.101 10
      vertex -14.6722 -56.8813 10
      vertex -14.6722 -63.1187 10
    endloop
  endfacet
  facet normal 0 0 1
    outer loop
      vertex -10.037 -71.1472 10
      vertex -14.6722 -56.8813 10
      vertex -12.1353 -68.8168 10
    endloop
  endfacet
  facet normal 0 0 1
    outer loop
      vertex -7.5 -72.9904 10
      vertex -14.6722 -56.8813 10
      vertex -10.037 -71.1472 10
    endloop
  endfacet
  facet normal 0 0 1
    outer loop
      vertex -4.63525 -74.2658 10
      vertex -14.6722 -56.8813 10
      vertex -7.5 -72.9904 10
    endloop
  endfacet
  facet normal 0 0 1
    outer loop
      vertex -1.56793 -74.9178 10
      vertex -14.6722 -56.8813 10
      vertex -4.63525 -74.2658 10
    endloop
  endfacet
  facet normal 0 0 1
    outer loop
      vertex -6.25 -66.25 10
      vertex -14.6722 -56.8813 10
      vertex -1.56793 -74.9178 10
    endloop
  endfacet
  facet normal 0 0 1
    outer loop
      vertex -6.25 -53.75 10
      vertex 6.25 -53.75 10
      vertex 12.1353 -51.1832 10
    endloop
  endfacet
  facet normal 0 0 1
    outer loop
      vertex 6.25 -53.75 10
      vertex 6.25 -66.25 10
      vertex 12.1353 -68.8168 10
    endloop
  endfacet
  facet normal 0 0 1
    outer loop
      vertex 6.25 -53.75 10
      vertex 12.1353 -68.8168 10
      vertex 13.7032 -66.101 10
    endloop
  endfacet
  facet normal 0 0 1
    outer loop
      vertex 6.25 -53.75 10
      vertex 13.7032 -66.101 10
      vertex 14.6722 -63.1187 10
    endloop
  endfacet
  facet normal 0 0 1
    outer loop
      vertex 6.25 -53.75 10
      vertex 14.6722 -63.1187 10
      vertex 15 -60 10
    endloop
  endfacet
  facet normal 0 0 1
    outer loop
      vertex 6.25 -53.75 10
      vertex 14.6722 -56.8813 10
      vertex 13.7032 -53.8989 10
    endloop
  endfacet
  facet normal 0 0 1
    outer loop
      vertex -7.5 -47.0096 10
      vertex -14.6722 -56.8813 10
      vertex 7.5 -47.0096 10
    endloop
  endfacet
  facet normal 0 0 1
    outer loop
      vertex 6.25 -66.25 10
      vertex -6.25 -66.25 10
      vertex 1.56793 -74.9178 10
    endloop
  endfacet
  facet normal 0 0 1
    outer loop
      vertex 12.1353 51.1832 10
      vertex 7.5 47.0096 10
      vertex 10.037 48.8528 10
    endloop
  endfacet
  facet normal 0 0 1
    outer loop
      vertex 13.7032 53.8989 10
      vertex 7.5 47.0096 10
      vertex 12.1353 51.1832 10
    endloop
  endfacet
  facet normal 0 0 1
    outer loop
      vertex 14.6722 56.8813 10
      vertex 7.5 47.0096 10
      vertex 13.7032 53.8989 10
    endloop
  endfacet
  facet normal 0 0 1
    outer loop
      vertex 15 60 10
      vertex 7.5 47.0096 10
      vertex 14.6722 56.8813 10
    endloop
  endfacet
  facet normal 0 0 1
    outer loop
      vertex 14.6722 63.1187 10
      vertex 7.5 47.0096 10
      vertex 15 60 10
    endloop
  endfacet
  facet normal 0 0 1
    outer loop
      vertex 13.7032 66.101 10
      vertex 7.5 47.0096 10
      vertex 14.6722 63.1187 10
    endloop
  endfacet
  facet normal 0 0 1
    outer loop
      vertex 12.1353 68.8168 10
      vertex 7.5 47.0096 10
      vertex 13.7032 66.101 10
    endloop
  endfacet
  facet normal 0 0 1
    outer loop
      vertex -3.075 63.075 10
      vertex 3.075 63.075 10
      vertex 4.63525 74.2658 10
    endloop
  endfacet
  facet normal 0 0 1
    outer loop
      vertex -3.075 63.075 10
      vertex 4.63525 74.2658 10
      vertex 1.56793 74.9178 10
    endloop
  endfacet
  facet normal 0 0 1
    outer loop
      vertex 3.075 56.925 10
      vertex -3.075 56.925 10
      vertex -7.5 47.0096 10
    endloop
  endfacet
  facet normal 0 0 1
    outer loop
      vertex -6.25 -66.25 10
      vertex -6.25 -53.75 10
      vertex -14.6722 -56.8813 10
    endloop
  endfacet
  facet normal 0 0 1
    outer loop
      vertex -10.037 48.8528 10
      vertex -7.5 47.0096 10
      vertex -7.5 72.9904 10
    endloop
  endfacet
  facet normal 0 0 1
    outer loop
      vertex -12.1353 51.1832 10
      vertex -10.037 48.8528 10
      vertex -10.037 71.1472 10
    endloop
  endfacet
  facet normal 0 0 1
    outer loop
      vertex -13.7032 53.8989 10
      vertex -12.1353 51.1832 10
      vertex -12.1353 68.8168 10
    endloop
  endfacet
  facet normal 0 0 1
    outer loop
      vertex -14.6722 56.8813 10
      vertex -13.7032 53.8989 10
      vertex -13.7032 66.101 10
    endloop
  endfacet
  facet normal 0 0 1
    outer loop
      vertex -14.6722 63.1187 10
      vertex -14.6722 56.8813 10
      vertex -13.7032 66.101 10
    endloop
  endfacet
  facet normal 0 0 1
    outer loop
      vertex -13.7032 66.101 10
      vertex -13.7032 53.8989 10
      vertex -12.1353 68.8168 10
    endloop
  endfacet
  facet normal 0 0 1
    outer loop
      vertex -12.1353 68.8168 10
      vertex -12.1353 51.1832 10
      vertex -10.037 71.1472 10
    endloop
  endfacet
  facet normal 0 0 1
    outer loop
      vertex -10.037 71.1472 10
      vertex -10.037 48.8528 10
      vertex -7.5 72.9904 10
    endloop
  endfacet
  facet normal 0 0 1
    outer loop
      vertex -7.5 72.9904 10
      vertex -7.5 47.0096 10
      vertex -4.63525 74.2658 10
    endloop
  endfacet
  facet normal 0 0 1
    outer loop
      vertex 7.5 47.0096 10
      vertex -7.5 -47.0096 10
      vertex 7.5 -47.0096 10
    endloop
  endfacet
  facet normal 0 0 1
    outer loop
      vertex -10.037 -48.8528 10
      vertex -14.6722 -56.8813 10
      vertex -7.5 -47.0096 10
    endloop
  endfacet
  facet normal 0 0 1
    outer loop
      vertex -12.1353 -51.1832 10
      vertex -14.6722 -56.8813 10
      vertex -10.037 -48.8528 10
    endloop
  endfacet
  facet normal 0 0 1
    outer loop
      vertex 6.25 -66.25 10
      vertex 7.5 -72.9904 10
      vertex 10.037 -71.1472 10
    endloop
  endfacet
  facet normal 0 0 1
    outer loop
      vertex -13.7032 -53.8989 10
      vertex -14.6722 -56.8813 10
      vertex -12.1353 -51.1832 10
    endloop
  endfacet
  facet normal 0 0 1
    outer loop
      vertex 6.25 -66.25 10
      vertex 4.63525 -74.2658 10
      vertex 7.5 -72.9904 10
    endloop
  endfacet
  facet normal 0 0 1
    outer loop
      vertex 6.25 -66.25 10
      vertex 1.56793 -74.9178 10
      vertex 4.63525 -74.2658 10
    endloop
  endfacet
  facet normal 0 0 1
    outer loop
      vertex 1.56793 -74.9178 10
      vertex -6.25 -66.25 10
      vertex -1.56793 -74.9178 10
    endloop
  endfacet
  facet normal 0 0 1
    outer loop
      vertex -6.25 -53.75 10
      vertex 12.1353 -51.1832 10
      vertex 10.037 -48.8528 10
    endloop
  endfacet
  facet normal 0 0 1
    outer loop
      vertex 7.5 -47.0096 10
      vertex -6.25 -53.75 10
      vertex 10.037 -48.8528 10
    endloop
  endfacet
  facet normal 0 0 1
    outer loop
      vertex 7.5 -47.0096 10
      vertex -14.6722 -56.8813 10
      vertex -6.25 -53.75 10
    endloop
  endfacet
  facet normal 0 0 1
    outer loop
      vertex 12.1353 -51.1832 10
      vertex 6.25 -53.75 10
      vertex 13.7032 -53.8989 10
    endloop
  endfacet
  facet normal 0 0 1
    outer loop
      vertex 6.25 -53.75 10
      vertex 15 -60 10
      vertex 14.6722 -56.8813 10
    endloop
  endfacet
  facet normal 0 0 1
    outer loop
      vertex 12.1353 -68.8168 10
      vertex 6.25 -66.25 10
      vertex 10.037 -71.1472 10
    endloop
  endfacet
  facet normal 0 0 1
    outer loop
      vertex -4.63525 74.2658 10
      vertex -3.075 63.075 10
      vertex -1.56793 74.9178 10
    endloop
  endfacet
  facet normal 0 0 1
    outer loop
      vertex 4.63525 74.2658 10
      vertex 3.075 63.075 10
      vertex 7.5 72.9904 10
    endloop
  endfacet
  facet normal 0 0 1
    outer loop
      vertex 3.075 63.075 10
      vertex 3.075 56.925 10
      vertex 7.5 72.9904 10
    endloop
  endfacet
  facet normal 0 0 1
    outer loop
      vertex -15 60 10
      vertex -14.6722 56.8813 10
      vertex -14.6722 63.1187 10
    endloop
  endfacet
  facet normal 0 0 1
    outer loop
      vertex -7.5 47.0096 10
      vertex -3.075 63.075 10
      vertex -4.63525 74.2658 10
    endloop
  endfacet
  facet normal 0 0 1
    outer loop
      vertex -7.5 47.0096 10
      vertex -3.075 56.925 10
      vertex -3.075 63.075 10
    endloop
  endfacet
  facet normal 0 0 1
    outer loop
      vertex -3.075 63.075 10
      vertex 1.56793 74.9178 10
      vertex -1.56793 74.9178 10
    endloop
  endfacet
  facet normal 0 0 1
    outer loop
      vertex 3.075 56.925 10
      vertex 10.037 71.1472 10
      vertex 7.5 72.9904 10
    endloop
  endfacet
  facet normal 0 0 1
    outer loop
      vertex 3.075 56.925 10
      vertex 12.1353 68.8168 10
      vertex 10.037 71.1472 10
    endloop
  endfacet
  facet normal 0 0 1
    outer loop
      vertex 3.075 56.925 10
      vertex 7.5 47.0096 10
      vertex 12.1353 68.8168 10
    endloop
  endfacet
  facet normal 0 0 1
    outer loop
      vertex -7.5 47.0096 10
      vertex 7.5 47.0096 10
      vertex 3.075 56.925 10
    endloop
  endfacet
  facet normal 0 0 1
    outer loop
      vertex -7.5 47.0096 10
      vertex -7.5 -47.0096 10
      vertex 7.5 47.0096 10
    endloop
  endfacet
  facet normal -1 0 0
    outer loop
      vertex -6.25 -66.25 10
      vertex -6.25 -66.25 22.5
      vertex -6.25 -53.75 10
    endloop
  endfacet
  facet normal -1 0 0
    outer loop
      vertex -6.25 -53.75 10
      vertex -6.25 -66.25 22.5
      vertex -6.25 -53.75 22.5
    endloop
  endfacet
  facet normal 0 -1 0
    outer loop
      vertex -6.25 -66.25 22.5
      vertex -6.25 -66.25 10
      vertex 6.25 -66.25 10
    endloop
  endfacet
  facet normal 0 -1 0
    outer loop
      vertex 6.25 -66.25 22.5
      vertex -6.25 -66.25 22.5
      vertex 6.25 -66.25 10
    endloop
  endfacet
  facet normal 1 0 0
    outer loop
      vertex 6.25 -66.25 22.5
      vertex 6.25 -66.25 10
      vertex 6.25 -53.75 10
    endloop
  endfacet
  facet normal 1 0 0
    outer loop
      vertex 6.25 -53.75 22.5
      vertex 6.25 -66.25 22.5
      vertex 6.25 -53.75 10
    endloop
  endfacet
  facet normal 0 1 0
    outer loop
      vertex -6.25 -53.75 10
      vertex -6.25 -53.75 22.5
      vertex 6.25 -53.75 10
    endloop
  endfacet
  facet normal 0 1 0
    outer loop
      vertex 6.25 -53.75 10
      vertex -6.25 -53.75 22.5
      vertex 6.25 -53.75 22.5
    endloop
  endfacet
  facet normal -1 0 0
    outer loop
      vertex -3.075 56.925 10
      vertex -3.075 56.925 16.15
      vertex -3.075 63.075 10
    endloop
  endfacet
  facet normal -1 0 0
    outer loop
      vertex -3.075 63.075 10
      vertex -3.075 56.925 16.15
      vertex -3.075 63.075 16.15
    endloop
  endfacet
  facet normal 0 -1 0
    outer loop
      vertex -3.075 56.925 16.15
      vertex -3.075 56.925 10
      vertex 3.075 56.925 10
    endloop
  endfacet
  facet normal 0 -1 0
    outer loop
      vertex 3.075 56.925 16.15
      vertex -3.075 56.925 16.15
      vertex 3.075 56.925 10
    endloop
  endfacet
  facet normal 1 0 0
    outer loop
      vertex 3.075 56.925 16.15
      vertex 3.075 56.925 10
      vertex 3.075 63.075 10
    endloop
  endfacet
  facet normal 1 0 0
    outer loop
      vertex 3.075 63.075 16.15
      vertex 3.075 56.925 16.15
      vertex 3.075 63.075 10
    endloop
  endfacet
  facet normal 0 1 0
    outer loop
      vertex -3.075 63.075 10
      vertex -3.075 63.075 16.15
      vertex 3.075 63.075 10
    endloop
  endfacet
  facet normal 0 1 0
    outer loop
      vertex 3.075 63.075 10
      vertex -3.075 63.075 16.15
      vertex 3.075 63.075 16.15
    endloop
  endfacet
  facet normal 0 0 1
    outer loop
      vertex -6.25 -53.75 22.5
      vertex -6.25 -66.25 22.5
      vertex 6.25 -66.25 22.5
    endloop
  endfacet
  facet normal 0 0 1
    outer loop
      vertex 6.25 -53.75 22.5
      vertex -6.25 -53.75 22.5
      vertex 6.25 -66.25 22.5
    endloop
  endfacet
  facet normal 0 0 1
    outer loop
      vertex -3.075 63.075 16.15
      vertex -3.075 56.925 16.15
      vertex 3.075 56.925 16.15
    endloop
  endfacet
  facet normal 0 0 1
    outer loop
      vertex 3.075 63.075 16.15
      vertex -3.075 63.075 16.15
      vertex 3.075 56.925 16.15
    endloop
  endfacet
endsolid OpenSCAD_Model
